<?xml version="1.0" encoding="utf-8"?>
<!-- Generator: Adobe Illustrator 23.0.1, SVG Export Plug-In . SVG Version: 6.00 Build 0)  -->
<svg version="1.1" id="_x30_" xmlns="http://www.w3.org/2000/svg" xmlns:xlink="http://www.w3.org/1999/xlink" x="0px" y="0px"
	 viewBox="0 0 776.6 1546.5" style="enable-background:new 0 0 776.6 1546.5;" xml:space="preserve">
<style type="text/css">
	.st0{fill:#1D1D1B;}
	.st1{fill:#FFFFFF;}
	.st2{font-family:'Roboto-Medium';}
	.st3{font-size:23.094px;}
	.st4{font-size:23.09px;}
	.st5{font-family:'Roboto-LightItalic';}
	.st6{font-size:14px;}
	.st7{font-family:'Roboto-BoldItalic';}
	.st8{fill:none;stroke:#1D1D1B;stroke-width:0.6565;stroke-miterlimit:10;}
	.st9{font-family:'Roboto-Black';}
	.st10{font-size:21.8443px;}
	.st11{fill:none;stroke:#1D1D1B;stroke-width:0.4876;stroke-linecap:round;stroke-miterlimit:10;}
	.st12{fill:none;stroke:#1D1D1B;stroke-width:0.4876;stroke-miterlimit:10;}
	.st13{fill:none;stroke:#1D1D1B;stroke-width:0.4876;stroke-linecap:round;stroke-linejoin:bevel;stroke-miterlimit:10;}
	.st14{fill:#FFFFFF;stroke:#1D1D1B;stroke-width:0.6565;stroke-miterlimit:10;}
	.st15{font-family:'Roboto-BlackItalic';}
	.st16{font-size:23.1051px;}
	.st17{fill:none;stroke:#FF0000;stroke-width:2.835000e-03;stroke-linecap:round;stroke-linejoin:round;stroke-miterlimit:10;}
	.st18{fill:none;stroke:#0000FF;stroke-width:2.835000e-03;stroke-miterlimit:10;}
</style>
<g>
	<g>
		<ellipse class="st0" cx="494.4" cy="580.3" rx="20.9" ry="20.9"/>
		<text transform="matrix(1 0 0 1 480.4695 587.5077)" class="st1 st2 st3">B2</text>
	</g>
	<text transform="matrix(1 0 0 1 532.6828 577.6742)" class="st2 st4">Cap</text>
	<text transform="matrix(1 0 0 1 532.6828 598.4742)" class="st5 st6">engrave the logo by cutting </text>
	<text transform="matrix(1 0 0 1 532.6828 615.2742)" class="st5 st6">at 50%</text>
</g>
<g>
	<g>
		<ellipse class="st0" cx="494.4" cy="261.3" rx="20.9" ry="20.9"/>
		<text transform="matrix(1 0 0 1 480.4696 268.425)" class="st1 st2 st3">B1</text>
	</g>
	<text transform="matrix(1 0 0 1 532.6828 268.4245)" class="st2 st4">Spring case</text>
</g>
<g>
	<g>
		<ellipse class="st0" cx="494.4" cy="954.5" rx="20.9" ry="20.9"/>
		<text transform="matrix(1 0 0 1 480.4696 961.6236)" class="st1 st2 st3">B4</text>
	</g>
	<text transform="matrix(1 0 0 1 532.6828 961.2183)" class="st2 st4">Brace </text>
	<text transform="matrix(1 0 0 1 597.8928 961.2183)" class="st7 st4">x2</text>
</g>
<g>
	<g>
		<ellipse class="st0" cx="494.4" cy="803.8" rx="20.9" ry="20.9"/>
		<text transform="matrix(1 0 0 1 480.4696 810.9809)" class="st1 st2 st3">B3</text>
	</g>
	<text transform="matrix(1 0 0 1 532.6828 810.9812)" class="st2 st4">Washer </text>
	<text transform="matrix(1 0 0 1 616.3528 810.9812)" class="st7 st4">x2</text>
</g>
<line class="st8" x1="776.6" y1="1119" x2="0" y2="1119"/>
<text transform="matrix(1 0 0 1 550.1218 63.3075)" class="st9 st10">3mm thick</text>
<line class="st11" x1="776.6" y1="45.7" x2="673.7" y2="45.7"/>
<line class="st11" x1="776.6" y1="68.1" x2="673.7" y2="68.1"/>
<line class="st12" x1="0" y1="56.9" x2="529.7" y2="56.9"/>
<g>
	<polyline class="st13" points="693.8,51.2 688.3,45.7 682.7,51.2 	"/>
	<polyline class="st13" points="693.8,62.6 688.3,68.1 682.7,62.6 	"/>
	<line class="st13" x1="688.3" y1="45.7" x2="688.3" y2="68.1"/>
</g>
<circle class="st0" cx="529.7" cy="56.9" r="2.2"/>
<g>
	<path class="st14" d="M281.2,79.7H94.7c-12.6,0-22.8-10.2-22.8-22.8l0,0c0-12.6,10.2-22.8,22.8-22.8h186.4
		c12.6,0,22.8,10.2,22.8,22.8l0,0C304,69.5,293.8,79.7,281.2,79.7z"/>
	<text transform="matrix(1 0 0 1 110.4148 64.4644)" class="st15 st16">To laser cut</text>
</g>
<g>
	<path class="st14" d="M281.2,1141.8H94.7c-12.6,0-22.8-10.2-22.8-22.8l0,0c0-12.6,10.2-22.8,22.8-22.8h186.4
		c12.6,0,22.8,10.2,22.8,22.8l0,0C304,1131.6,293.8,1141.8,281.2,1141.8z"/>
	<text transform="matrix(1 0 0 1 107.9158 1126.5485)" class="st15 st16">Print Layout</text>
</g>
<g>
	<g id="CIRCLE">
		<path class="st17" d="M147.4,195.6c-3.2,0-5.8-2.6-5.8-5.8c0-3.2,2.6-5.8,5.8-5.8c3.2,0,5.8,2.6,5.8,5.8S150.6,195.6,147.4,195.6
			L147.4,195.6z"/>
	</g>
	<g id="CIRCLE_1_">
		<path class="st17" d="M294.2,342.4c-3.2,0-5.8-2.6-5.8-5.8s2.6-5.8,5.8-5.8s5.8,2.6,5.8,5.8S297.4,342.4,294.2,342.4L294.2,342.4z
			"/>
	</g>
	<g id="ARC_37_">
		<path class="st17" d="M192.9,381.6c5.4-2,8.9-7.1,8.9-12.8"/>
	</g>
	<g id="ARC_36_">
		<path class="st17" d="M239.8,368.8c0,5.7,3.6,10.8,8.9,12.8"/>
	</g>
	<g id="ARC_35_">
		<path class="st17" d="M251.6,384c66.7-17,107-85,90-151.7s-85-107-151.7-90s-107,85-90,151.7c11.3,44.2,45.8,78.7,90,90"/>
	</g>
	<g id="ARC_34_">
		<path class="st17" d="M249.9,383c-0.2-0.6-0.6-1.2-1.2-1.4"/>
	</g>
	<g id="ARC_33_">
		<path class="st17" d="M249.9,383c0.2,0.8,0.9,1.2,1.7,1c0,0,0,0,0,0"/>
	</g>
	<g id="ARC_32_">
		<path class="st17" d="M192.9,381.6c-0.6,0.2-1.1,0.8-1.2,1.4"/>
	</g>
	<g id="ARC_31_">
		<path class="st17" d="M189.9,384c0.8,0.2,1.5-0.3,1.7-1c0,0,0,0,0,0"/>
	</g>
	<g id="LINE_3_">
		<line class="st17" x1="239.8" y1="368.8" x2="239.8" y2="354.3"/>
	</g>
	<g id="ARC_30_">
		<path class="st17" d="M249.1,341c-5.6,2-9.3,7.4-9.3,13.3"/>
	</g>
	<g id="LINE_2_">
		<line class="st17" x1="201.8" y1="368.8" x2="201.8" y2="354.3"/>
	</g>
	<g id="ARC_29_">
		<path class="st17" d="M201.8,354.3c0-6-3.7-11.3-9.3-13.3"/>
	</g>
	<g id="ARC_28_">
		<path class="st17" d="M331.5,266.2c0.6-20.6-4.6-41-15-58.8"/>
	</g>
	<g id="ARC_27_">
		<path class="st17" d="M316.5,207.5c-3.8-6.6-12.1-8.9-18.8-5.4"/>
	</g>
	<g id="ARC_26_">
		<path class="st17" d="M110.1,260.1c-0.6,20.6,4.6,41,15,58.8"/>
	</g>
	<g id="ARC_25_">
		<path class="st17" d="M125.1,318.9c3.8,6.5,12.1,8.9,18.8,5.4"/>
	</g>
	<g id="ARC_24_">
		<path class="st17" d="M304.4,269.6c3.6,7.1,12.2,10.1,19.4,6.5c3.9-2,6.8-5.6,7.7-9.9"/>
	</g>
	<g id="ARC_14_">
		<path class="st17" d="M249.1,341c30.4-11.1,51.6-38.9,54.2-71.2"/>
	</g>
	<g id="ARC_15_">
		<path class="st17" d="M304.4,269.6c-0.1-0.3-0.5-0.4-0.8-0.3c-0.2,0.1-0.3,0.3-0.3,0.5"/>
	</g>
	<g id="ARC_16_">
		<path class="st17" d="M297.6,202c-4.5,2.3-8,6.1-10.2,10.7"/>
	</g>
	<g id="ARC_17_">
		<path class="st17" d="M286.5,212.8c0.2,0.3,0.5,0.3,0.8,0.1c0.1-0.1,0.1-0.1,0.2-0.2"/>
	</g>
	<g id="ARC_18_">
		<path class="st17" d="M137.2,256.8c-3.6-7.1-12.2-10.1-19.4-6.5c-3.9,2-6.8,5.6-7.7,9.9"/>
	</g>
	<g id="ARC_19_">
		<path class="st17" d="M286.5,212.8c-27.8-36.3-79.8-43.2-116.1-15.4c-18.6,14.3-30.3,35.7-32.2,59.1"/>
	</g>
	<g id="ARC_20_">
		<path class="st17" d="M137.2,256.8c0.1,0.3,0.5,0.4,0.8,0.3c0.2-0.1,0.3-0.3,0.3-0.5"/>
	</g>
	<g id="ARC_21_">
		<path class="st17" d="M155.1,313.6c9.6,12.5,22.6,22,37.4,27.4"/>
	</g>
	<g id="ARC_22_">
		<path class="st17" d="M143.9,324.3c4.5-2.3,8.1-6.1,10.2-10.7"/>
	</g>
	<g id="ARC_23_">
		<path class="st17" d="M155.1,313.6c-0.2-0.3-0.6-0.3-0.8-0.1c-0.1,0.1-0.1,0.1-0.2,0.2"/>
	</g>
</g>
<g>
	<g id="CIRCLE_3_">
		<path class="st17" d="M199.5,803.8c0-11.7,9.5-21.3,21.3-21.3c11.7,0,21.3,9.5,21.3,21.3s-9.5,21.3-21.3,21.3
			C209,825.1,199.5,815.5,199.5,803.8L199.5,803.8z"/>
	</g>
	<g id="CIRCLE_2_">
		<path class="st17" d="M214.8,803.8c0-3.3,2.7-6,5.9-6c3.3,0,5.9,2.7,5.9,6s-2.7,6-5.9,6C217.5,809.8,214.8,807.1,214.8,803.8
			L214.8,803.8z"/>
	</g>
</g>
<g>
	<g id="CIRCLE_15_">
		<path class="st17" d="M261.6,1230.6c0,11.7,9.5,21.3,21.3,21.3c11.7,0,21.3-9.5,21.3-21.3s-9.5-21.3-21.3-21.3
			S261.6,1218.9,261.6,1230.6L261.6,1230.6z"/>
	</g>
	<g id="CIRCLE_14_">
		<path class="st17" d="M276.9,1230.6c0,3.3,2.7,5.9,6,5.9c3.3,0,6-2.7,6-5.9s-2.7-5.9-6-5.9
			C279.6,1224.7,276.9,1227.3,276.9,1230.6L276.9,1230.6z"/>
	</g>
</g>
<g>
	<g id="CIRCLE_13_">
		<path class="st17" d="M514.8,1230.6c0,11.7-9.5,21.3-21.3,21.3c-11.7,0-21.3-9.5-21.3-21.3s9.5-21.3,21.3-21.3
			C505.3,1209.4,514.8,1218.9,514.8,1230.6L514.8,1230.6z"/>
	</g>
	<g id="CIRCLE_12_">
		<path class="st17" d="M499.5,1230.6c0,3.3-2.7,5.9-6,5.9c-3.3,0-6-2.7-6-5.9s2.7-5.9,6-5.9
			C496.9,1224.7,499.5,1227.3,499.5,1230.6L499.5,1230.6z"/>
	</g>
</g>
<g>
	<g id="CIRCLE_5_">
		<path class="st17" d="M206.6,954.5c0-7.8,6.4-14.2,14.2-14.2c7.8,0,14.2,6.3,14.2,14.2s-6.4,14.2-14.2,14.2
			S206.6,962.3,206.6,954.5L206.6,954.5z"/>
	</g>
	<g id="CIRCLE_4_">
		<path class="st17" d="M214.8,954.5c0-3.3,2.7-6,5.9-6c3.3,0,5.9,2.7,5.9,6s-2.7,6-5.9,6C217.5,960.4,214.8,957.7,214.8,954.5
			L214.8,954.5z"/>
	</g>
</g>
<g>
	<g id="CIRCLE_9_">
		<path class="st17" d="M290.5,1374.3c0-7.8,6.4-14.2,14.2-14.2c7.8,0,14.2,6.3,14.2,14.2c0,7.8-6.4,14.2-14.2,14.2
			C296.9,1388.5,290.5,1382.1,290.5,1374.3L290.5,1374.3z"/>
	</g>
	<g id="CIRCLE_8_">
		<path class="st17" d="M298.8,1374.3c0-3.3,2.7-5.9,6-5.9c3.3,0,6,2.7,6,5.9s-2.7,5.9-6,5.9
			C301.4,1380.3,298.8,1377.6,298.8,1374.3L298.8,1374.3z"/>
	</g>
</g>
<g>
	<g id="CIRCLE_11_">
		<path class="st17" d="M485,1290.1c0,7.8-6.4,14.2-14.2,14.2c-7.8,0-14.2-6.3-14.2-14.2c0-7.8,6.4-14.2,14.2-14.2
			C478.7,1275.9,485,1282.3,485,1290.1L485,1290.1z"/>
	</g>
	<g id="CIRCLE_10_">
		<path class="st17" d="M476.8,1290.1c0,3.3-2.7,5.9-6,5.9c-3.3,0-6-2.7-6-5.9s2.7-5.9,6-5.9
			C474.1,1284.1,476.8,1286.8,476.8,1290.1L476.8,1290.1z"/>
	</g>
</g>
<g>
	<g>
		<g id="ARC">
			<path class="st17" d="M154.7,608.1c3.9-10.1,0.1-21.6-9-27.5"/>
		</g>
		<g id="ARC_1_">
			<path class="st17" d="M139.4,570.7c0.6,4.1,2.9,7.7,6.4,9.9"/>
		</g>
		<g id="ARC_2_">
			<path class="st17" d="M302.2,547.5c-0.6-4.1-2.9-7.7-6.4-9.9"/>
		</g>
		<g id="ARC_3_">
			<path class="st17" d="M286.8,510.1c-3.9,10.1-0.1,21.6,9,27.5"/>
		</g>
		<g id="ARC_4_">
			<path class="st17" d="M286.8,510.1c-27.1-36.5-78.6-44.1-115.1-17.1c-24.2,18-36.7,47.8-32.4,77.7"/>
		</g>
		<g id="ARC_5_">
			<path class="st17" d="M248.6,636.5c36.7-13.2,59.1-50.4,53.6-89"/>
		</g>
		<g id="LINE">
			<line class="st17" x1="239.2" y1="664.7" x2="239.2" y2="649.8"/>
		</g>
		<g id="ARC_6_">
			<path class="st17" d="M248.6,636.5c-5.6,2-9.4,7.4-9.4,13.3"/>
		</g>
		<g id="ARC_7_">
			<path class="st17" d="M154.7,608.1c9.7,13,23,22.9,38.3,28.4"/>
		</g>
		<g id="LINE_1_">
			<line class="st17" x1="202.4" y1="649.8" x2="202.4" y2="664.7"/>
		</g>
		<g id="ARC_8_">
			<path class="st17" d="M202.4,649.8c0-6-3.8-11.3-9.4-13.3"/>
		</g>
		<g id="ARC_9_">
			<path class="st17" d="M193.1,678c5.6-2,9.3-7.4,9.3-13.3"/>
		</g>
		<g id="ARC_10_">
			<path class="st17" d="M193.1,678c-0.7,0.3-1.1,1.1-0.8,1.8c0.2,0.5,0.6,0.8,1,0.9"/>
		</g>
		<g id="ARC_11_">
			<path class="st17" d="M239.2,664.7c0,5.9,3.7,11.3,9.3,13.3"/>
		</g>
		<g id="ARC_12_">
			<path class="st17" d="M193.3,680.8c18.1,4.1,36.9,4.1,55.1,0"/>
		</g>
		<g id="ARC_13_">
			<path class="st17" d="M248.3,680.8c0.8-0.2,1.2-0.9,1.1-1.7c-0.1-0.5-0.4-0.8-0.9-1"/>
		</g>
	</g>
	<g>
		<path class="st18" d="M263.5,578.3c-0.9,0.4-1.9,0.7-2.9,1c3.5,9,3.6,16.1,0,19.7c-3.6,3.6-10.7,3.5-19.8,0
			c-0.3,1-0.7,1.9-1.1,2.8c4.9,1.9,9.3,2.9,13.1,2.9c4.2,0,7.6-1.2,9.9-3.6C267.3,596.7,267.5,588.5,263.5,578.3z"/>
		<g>
			<path class="st18" d="M235.1,564.3v1.8c0,0.2,0,0.4-0.1,0.6h5.6c0.1-1,0.1-2,0.1-3H235C235,563.9,235.1,564.1,235.1,564.3z"/>
			<path class="st18" d="M240.8,557.6c-0.2,0-0.4,0-0.5,0H235c0.1,0.2,0.1,0.4,0.1,0.6v1.8c0,0.2,0,0.4-0.1,0.6h5.3
				c0.2,0,0.4,0,0.5,0c0-0.5,0-1,0-1.5C240.8,558.6,240.8,558.1,240.8,557.6z"/>
		</g>
		<path class="st18" d="M246.3,551c0.1,1.8,0.2,3.5,0.2,5.3C247.2,554.6,247.1,552.7,246.3,551z"/>
		<path class="st18" d="M234.5,538.3c-9.1-8.5-18.3-15-26.8-19.3c-0.4,0.9-0.8,1.9-1.1,2.9c8.5,4.3,17.9,11,26.8,19.5
			C233.5,540.4,233.9,539.3,234.5,538.3z"/>
		<path class="st18" d="M239.3,547.4c0.4,0.4,0.8,0.8,1.2,1.3c-0.1-1.7-0.3-3.3-0.5-4.9c-0.2-0.2-0.5-0.5-0.7-0.7L239.3,547.4
			L239.3,547.4z"/>
		<path class="st18" d="M188.6,516.6c3.5,0,7.6,1,12.2,2.8c0.4-1,0.7-1.9,1.1-2.9c-10.1-3.9-18.5-4-23.2,0.6
			c-4.7,4.7-4.6,13.2-0.6,23.3c0.9-0.4,1.9-0.8,2.9-1.1c-3.6-8.9-3.9-16.3-0.1-20C182.7,517.4,185.4,516.6,188.6,516.6z"/>
		<path class="st18" d="M245.1,536.8C245.2,536.8,245.2,536.8,245.1,536.8L245.1,536.8C245.2,536.8,245.1,536.8,245.1,536.8z"/>
		<path class="st18" d="M245.2,536.8c0.2,1,0.4,2.1,0.5,3.2l0,0c19,3.6,31.5,11.2,31.5,19.2c0,8.2-12.7,15.5-30.9,19.1c0,0,0,0,0,0
			c-0.1,1.1-0.3,2.2-0.4,3.2c20.5-3.8,34.4-12.3,34.4-22.3C280.3,549.3,266.6,540.7,245.2,536.8z"/>
		<g>
			<path class="st18" d="M164.4,559.2c0-7.1,9.9-14,25.8-18c0.3-0.1,0.5-0.1,0.8-0.1c0.7,0,1.3,0.2,1.9,0.7c0.8,0.6,1.2,1.5,1.2,2.5
				l-0.1,10.2c0,1.7,0.6,3.2,1.8,4.4c1.2,1.2,2.7,1.8,4.4,1.8h6.4c-0.1-0.2-0.1-0.4-0.1-0.6v-1.8c0-0.2,0-0.4,0.1-0.6h-6.4
				c-0.8,0-1.6-0.3-2.2-0.9c-0.6-0.6-0.9-1.4-0.9-2.2l0-3.6c-1.1-1.9-1.7-4.2-1.4-6.5c0.1-1.2,0.3-2.4,0.4-3.6
				c-0.4-0.5-0.8-1-1.3-1.4c-1.5-1.2-3.4-1.6-5.3-1.1c-17.6,4.4-28.1,12.2-28.1,20.9c0,13.7,26.1,24.5,59.5,24.5
				c6.3,0,12.3-0.4,18-1.1c0.2-1,0.4-2.1,0.5-3.2c-5.8,0.8-12.1,1.3-18.5,1.3C190.2,580.6,164.4,570.8,164.4,559.2z"/>
			<path class="st18" d="M234.3,550.4c0.5,0.5,0.8,1.1,0.8,1.8v1.4c1.7-1.1,2.8-3,2.8-5.1v-6.2c0-0.9,0.4-1.8,1.1-2.4
				c0.2-0.1,0.3-0.3,0.5-0.3c-0.1-1-0.3-2.1-0.5-3.1c-0.7,0.3-1.4,0.6-2,1.1c-1.4,1.2-2.1,2.9-2.1,4.7v6.2c0,0.7-0.2,1.3-0.6,1.8
				C234.2,550.4,234.3,550.4,234.3,550.4z"/>
		</g>
		<path class="st18" d="M255.4,568.5c1,1.8,2,3.5,2.8,5.1c1-0.3,1.9-0.7,2.9-1.1c-0.9-1.8-1.9-3.7-3-5.6c-1.2-2-3.4-3.3-5.8-3.3
			h-5.6c0,1-0.1,2-0.1,3h5.7C253.5,566.7,254.7,567.4,255.4,568.5z"/>
		<path class="st18" d="M197,571.8c-0.1,0.7-0.1,1.4,0,2c0.1,1.1,0.2,2.2,0.4,3.3c1,0.2,2.1,0.4,3.1,0.5c-0.1-0.8-0.2-1.6-0.3-2.4
			C199.1,574.1,198.1,573,197,571.8z"/>
		<path class="st18" d="M206.5,566.1v-1.8c0-0.2,0-0.4,0.1-0.6h-0.4c-2.3,0-4.6,0.9-6.3,2.5c0.7,0.8,1.3,1.5,2,2.3
			c1.1-1.1,2.7-1.7,4.3-1.7h0.4C206.5,566.5,206.5,566.3,206.5,566.1z"/>
		<path class="st18" d="M205.6,574.3c-9.8-9.8-17.4-20.3-22.1-29.6c-1,0.3-2,0.7-2.9,1.1c4.8,9.7,12.6,20.4,22.9,30.7
			c0.6,0.6,1.2,1.2,1.9,1.8c1.6,0.2,3.3,0.3,4.9,0.5C208.7,577.4,207.1,575.9,205.6,574.3z"/>
		<path class="st18" d="M235.2,596.5c-5.7-2.9-11.7-6.8-17.6-11.5c-1.7,0-3.4-0.1-5-0.2c7.2,6.1,14.6,11,21.6,14.5
			C234.5,598.5,234.9,597.5,235.2,596.5z"/>
		<path class="st18" d="M220.8,499.7c-11.5,0-21.1,18-23.8,44.9c-0.3,2.6,0.6,5.2,2.3,7.1s4.3,3,6.9,3h0.4c-0.1-0.2-0.1-0.5-0.1-0.7
			v-1.8c0-0.2,0-0.3,0.1-0.5h-0.3c-1.8,0-3.4-0.8-4.6-2.1c-1.2-1.3-1.8-3-1.6-4.8c2.5-24.4,11.2-42.1,20.8-42.1
			c11.6,0,21.5,25.8,21.5,56.4c0,30.6-9.8,56.4-21.5,56.4c-8,0-15.4-12.5-19.1-30.9c-1.1-0.2-2.2-0.3-3.2-0.5
			c3.9,21,12.4,34.5,22.3,34.5c13.7,0,24.5-26.1,24.5-59.5S234.5,499.7,220.8,499.7z"/>
		<path class="st18" d="M233.3,551.5c-0.2-0.2-0.5-0.3-0.8-0.3h-1.8h-0.9v-1.9c0-1.8-1.4-3.2-3.2-3.2h-11.8c-1.8,0-3.2,1.4-3.2,3.2
			v1.9h-0.9h-1.8c-0.3,0-0.6,0.1-0.8,0.3s-0.3,0.5-0.3,0.8v0.9v0.9c0,0.3,0.1,0.6,0.3,0.8c0.2,0.2,0.5,0.3,0.8,0.3h1.8h0.9v2h-0.9
			h-1.8c-0.3,0-0.6,0.1-0.8,0.3s-0.3,0.5-0.3,0.8v0.9v0.9c0,0.3,0.1,0.6,0.3,0.8c0.2,0.2,0.5,0.3,0.8,0.3h1.8h0.9v2h-0.9h-1.8
			c-0.3,0-0.6,0.1-0.8,0.3c-0.2,0.2-0.3,0.5-0.3,0.8v0.9v0.9c0,0.3,0.1,0.6,0.3,0.8c0.2,0.2,0.5,0.3,0.8,0.3h1.8h0.9v1.9
			c0,1.8,1.4,3.2,3.2,3.2h11.8c1.8,0,3.2-1.4,3.2-3.2v-1.9h0.9h1.8c0.3,0,0.6-0.1,0.8-0.3s0.3-0.5,0.3-0.8v-0.9v-0.9
			c0-0.3-0.1-0.6-0.3-0.8c-0.2-0.2-0.5-0.3-0.8-0.3h-1.8h-0.9v-2h0.9h1.8c0.3,0,0.6-0.1,0.8-0.3s0.3-0.5,0.3-0.8v-0.9v-0.9
			c0-0.3-0.1-0.6-0.3-0.8c-0.2-0.2-0.5-0.3-0.8-0.3h-1.8h-0.9v-2h0.9h1.8c0.3,0,0.6-0.1,0.8-0.3c0.2-0.2,0.3-0.5,0.3-0.8v-0.9v-0.9
			C233.6,551.9,233.5,551.7,233.3,551.5z"/>
	</g>
</g>
<g>
	<g id="CIRCLE_7_">
		<path class="st17" d="M314.9,1266.6c-3.2,0-5.8-2.6-5.8-5.8s2.6-5.8,5.8-5.8s5.8,2.6,5.8,5.8S318.1,1266.6,314.9,1266.6
			L314.9,1266.6z"/>
	</g>
	<g id="CIRCLE_6_">
		<path class="st17" d="M461.7,1413.3c-3.2,0-5.8-2.6-5.8-5.8c0-3.2,2.6-5.8,5.8-5.8s5.8,2.6,5.8,5.8
			C467.5,1410.7,464.9,1413.3,461.7,1413.3L461.7,1413.3z"/>
	</g>
	<g id="ARC_145_">
		<path class="st17" d="M360.4,1452.5c5.4-2,8.9-7.1,8.9-12.8"/>
	</g>
	<g id="ARC_144_">
		<path class="st17" d="M407.3,1439.8c0,5.7,3.6,10.8,8.9,12.8"/>
	</g>
	<g id="ARC_143_">
		<path class="st17" d="M419.2,1455c66.7-17.1,107-85,90-151.7c-17-66.7-85-107-151.7-90s-107,85-90,151.7
			c11.3,44.2,45.8,78.7,90,90"/>
	</g>
	<g id="ARC_142_">
		<path class="st17" d="M417.5,1453.9c-0.2-0.6-0.6-1.2-1.2-1.4"/>
	</g>
	<g id="ARC_141_">
		<path class="st17" d="M417.5,1453.9c0.2,0.8,1,1.2,1.7,1.1c0,0,0,0,0,0"/>
	</g>
	<g id="ARC_140_">
		<path class="st17" d="M360.4,1452.5c-0.6,0.2-1.1,0.8-1.2,1.4"/>
	</g>
	<g id="ARC_69_">
		<path class="st17" d="M357.4,1455c0.8,0.2,1.5-0.3,1.7-1c0,0,0,0,0,0"/>
	</g>
	<g id="LINE_7_">
		<line class="st17" x1="407.3" y1="1439.8" x2="407.3" y2="1425.3"/>
	</g>
	<g id="ARC_68_">
		<path class="st17" d="M416.6,1411.9c-5.6,2-9.3,7.4-9.3,13.3"/>
	</g>
	<g id="LINE_6_">
		<line class="st17" x1="369.3" y1="1439.8" x2="369.3" y2="1425.3"/>
	</g>
	<g id="ARC_67_">
		<path class="st17" d="M369.3,1425.3c0-6-3.7-11.3-9.3-13.3"/>
	</g>
	<g id="ARC_66_">
		<path class="st17" d="M499,1337.2c0.6-20.6-4.6-41-15-58.8"/>
	</g>
	<g id="ARC_65_">
		<path class="st17" d="M484,1278.4c-3.8-6.6-12.1-8.9-18.8-5.4"/>
	</g>
	<g id="ARC_64_">
		<path class="st17" d="M277.6,1331.1c-0.6,20.6,4.6,41,15,58.8"/>
	</g>
	<g id="ARC_63_">
		<path class="st17" d="M292.6,1389.8c3.8,6.6,12.1,8.9,18.8,5.4"/>
	</g>
	<g id="ARC_62_">
		<path class="st17" d="M471.9,1340.6c3.6,7.2,12.2,10.1,19.4,6.5c3.9-2,6.8-5.6,7.7-9.9"/>
	</g>
	<g id="ARC_61_">
		<path class="st17" d="M416.6,1411.9c30.4-11.1,51.6-38.9,54.2-71.2"/>
	</g>
	<g id="ARC_60_">
		<path class="st17" d="M471.9,1340.6c-0.1-0.3-0.5-0.4-0.8-0.3c-0.2,0.1-0.3,0.3-0.3,0.5"/>
	</g>
	<g id="ARC_59_">
		<path class="st17" d="M465.2,1273c-4.5,2.3-8,6.1-10.2,10.7"/>
	</g>
	<g id="ARC_58_">
		<path class="st17" d="M454,1283.7c0.2,0.3,0.5,0.3,0.8,0.1c0.1-0.1,0.1-0.1,0.2-0.2"/>
	</g>
	<g id="ARC_57_">
		<path class="st17" d="M304.7,1327.7c-3.6-7.2-12.2-10.1-19.4-6.5c-3.9,2-6.8,5.6-7.7,9.9"/>
	</g>
	<g id="ARC_56_">
		<path class="st17" d="M454,1283.7c-27.8-36.3-79.8-43.2-116.1-15.3c-18.6,14.3-30.3,35.7-32.2,59.1"/>
	</g>
	<g id="ARC_55_">
		<path class="st17" d="M304.7,1327.7c0.1,0.3,0.5,0.4,0.8,0.3c0.2-0.1,0.3-0.3,0.3-0.5"/>
	</g>
	<g id="ARC_54_">
		<path class="st17" d="M322.6,1384.5c9.6,12.5,22.6,22,37.4,27.4"/>
	</g>
	<g id="ARC_53_">
		<path class="st17" d="M311.4,1395.3c4.5-2.3,8-6.1,10.2-10.7"/>
	</g>
	<g id="ARC_52_">
		<path class="st17" d="M322.6,1384.5c-0.2-0.3-0.5-0.3-0.8-0.1c-0.1,0.1-0.1,0.1-0.2,0.2"/>
	</g>
</g>
<g>
	<g>
		<g id="ARC_51_">
			<path class="st17" d="M322.3,1383c3.9-10.1,0.1-21.6-9-27.5"/>
		</g>
		<g id="ARC_50_">
			<path class="st17" d="M306.9,1345.6c0.6,4.1,2.9,7.7,6.4,9.9"/>
		</g>
		<g id="ARC_49_">
			<path class="st17" d="M469.7,1322.4c-0.6-4.1-2.9-7.7-6.4-9.9"/>
		</g>
		<g id="ARC_48_">
			<path class="st17" d="M454.4,1285.1c-3.9,10.1-0.1,21.6,9,27.5"/>
		</g>
		<g id="ARC_47_">
			<path class="st17" d="M454.4,1285.1c-27.1-36.5-78.6-44.1-115-17.1c-24.2,18-36.7,47.8-32.4,77.7"/>
		</g>
		<g id="ARC_46_">
			<path class="st17" d="M416.1,1411.4c36.7-13.2,59.1-50.4,53.6-89"/>
		</g>
		<g id="LINE_5_">
			<line class="st17" x1="406.7" y1="1439.7" x2="406.7" y2="1424.8"/>
		</g>
		<g id="ARC_45_">
			<path class="st17" d="M416.1,1411.4c-5.6,2-9.4,7.4-9.4,13.3"/>
		</g>
		<g id="ARC_44_">
			<path class="st17" d="M322.3,1383c9.7,13,23,22.9,38.3,28.4"/>
		</g>
		<g id="LINE_4_">
			<line class="st17" x1="369.9" y1="1424.8" x2="369.9" y2="1439.7"/>
		</g>
		<g id="ARC_43_">
			<path class="st17" d="M369.9,1424.8c0-6-3.8-11.3-9.4-13.3"/>
		</g>
		<g id="ARC_42_">
			<path class="st17" d="M360.6,1453c5.6-2.1,9.3-7.4,9.3-13.3"/>
		</g>
		<g id="ARC_41_">
			<path class="st17" d="M360.6,1453c-0.7,0.3-1.1,1.1-0.8,1.8c0.2,0.4,0.5,0.8,1,0.9"/>
		</g>
		<g id="ARC_40_">
			<path class="st17" d="M406.7,1439.7c0,5.9,3.7,11.3,9.3,13.3"/>
		</g>
		<g id="ARC_39_">
			<path class="st17" d="M360.8,1455.7c18.1,4.1,36.9,4.1,55,0"/>
		</g>
		<g id="ARC_38_">
			<path class="st17" d="M415.8,1455.7c0.8-0.2,1.2-0.9,1.1-1.7c-0.1-0.5-0.4-0.8-0.9-1"/>
		</g>
	</g>
	<g>
		<path class="st18" d="M431.1,1353.2c-0.9,0.4-1.9,0.7-2.9,1.1c3.5,9,3.6,16.1,0,19.7c-3.6,3.6-10.7,3.5-19.8,0
			c-0.3,1-0.7,1.9-1,2.8c4.9,1.9,9.3,2.9,13.1,2.9c4.2,0,7.6-1.2,9.9-3.6C434.9,1371.7,435,1363.4,431.1,1353.2z"/>
		<g>
			<path class="st18" d="M402.6,1339.2v1.8c0,0.2,0,0.4-0.1,0.6h5.6c0.1-1,0.1-2,0.1-3h-5.8C402.6,1338.8,402.6,1339,402.6,1339.2z"
				/>
			<path class="st18" d="M408.3,1332.5c-0.2,0-0.4,0-0.5,0h-5.3c0,0.2,0.1,0.4,0.1,0.6v1.8c0,0.2,0,0.4-0.1,0.6h5.3
				c0.2,0,0.4,0,0.5,0c0-0.5,0-1,0-1.5C408.4,1333.6,408.3,1333.1,408.3,1332.5z"/>
		</g>
		<path class="st18" d="M413.8,1326c0.1,1.8,0.2,3.5,0.2,5.3C414.7,1329.5,414.6,1327.6,413.8,1326z"/>
		<path class="st18" d="M402,1313.3c-9-8.5-18.3-15-26.8-19.3c-0.4,0.9-0.8,1.9-1.1,2.9c8.5,4.3,17.9,11,26.8,19.5
			C401.1,1315.3,401.4,1314.2,402,1313.3z"/>
		<path class="st18" d="M406.8,1322.3c0.4,0.4,0.8,0.8,1.2,1.3c-0.1-1.7-0.3-3.3-0.5-4.9c-0.2-0.2-0.5-0.5-0.7-0.7L406.8,1322.3
			L406.8,1322.3z"/>
		<path class="st18" d="M356.2,1291.5c3.5,0,7.6,1,12.2,2.8c0.4-1,0.7-1.9,1.1-2.9c-10.1-3.9-18.5-4-23.2,0.6
			c-4.7,4.7-4.6,13.2-0.6,23.3c0.9-0.4,1.9-0.7,2.9-1.1c-3.5-8.9-3.9-16.3-0.1-20.1C350.2,1292.4,352.9,1291.5,356.2,1291.5z"/>
		<path class="st18" d="M412.6,1311.7C412.7,1311.7,412.7,1311.7,412.6,1311.7L412.6,1311.7C412.7,1311.7,412.7,1311.7,412.6,1311.7
			z"/>
		<path class="st18" d="M412.7,1311.7c0.2,1.1,0.4,2.1,0.5,3.2l0,0c19,3.6,31.5,11.2,31.5,19.2c0,8.2-12.7,15.4-30.9,19.1
			c0,0,0,0,0,0c-0.1,1.1-0.3,2.2-0.4,3.2c20.5-3.8,34.4-12.3,34.4-22.3C447.8,1324.2,434.1,1315.6,412.7,1311.7z"/>
		<g>
			<path class="st18" d="M331.9,1334.1c0-7.1,9.9-14,25.8-18c0.3-0.1,0.5-0.1,0.8-0.1c0.7,0,1.3,0.2,1.9,0.7
				c0.8,0.6,1.2,1.5,1.2,2.5l-0.1,10.2c0,1.7,0.6,3.2,1.8,4.4s2.7,1.8,4.4,1.8h6.5c0-0.2-0.1-0.4-0.1-0.6v-1.8c0-0.2,0-0.4,0.1-0.6
				h-6.5c-0.8,0-1.6-0.3-2.2-0.9c-0.6-0.6-0.9-1.4-0.9-2.2l0-3.6c-1.1-1.9-1.7-4.2-1.5-6.5c0.1-1.2,0.3-2.4,0.4-3.6
				c-0.4-0.5-0.8-1-1.3-1.4c-1.5-1.2-3.4-1.6-5.3-1.1c-17.6,4.4-28.1,12.2-28.1,20.9c0,13.7,26.1,24.5,59.5,24.5
				c6.3,0,12.3-0.4,18-1.1c0.2-1,0.4-2.1,0.5-3.2c-5.8,0.8-12.1,1.3-18.5,1.3C357.7,1355.6,331.9,1345.7,331.9,1334.1z"/>
			<path class="st18" d="M401.9,1325.4c0.5,0.5,0.8,1.1,0.8,1.8v1.4c1.7-1.1,2.8-3,2.8-5.1v-6.2c0-0.9,0.4-1.8,1.1-2.4
				c0.2-0.1,0.3-0.3,0.5-0.3c-0.1-1-0.3-2.1-0.5-3.1c-0.7,0.3-1.4,0.6-2,1.1c-1.4,1.2-2.1,2.9-2.1,4.7v6.2c0,0.7-0.2,1.3-0.6,1.8
				C401.8,1325.3,401.8,1325.3,401.9,1325.4z"/>
		</g>
		<path class="st18" d="M422.9,1343.4c1,1.8,2,3.4,2.8,5.1c1-0.3,1.9-0.7,2.9-1.1c-0.9-1.8-1.9-3.7-3-5.6c-1.2-2-3.4-3.3-5.8-3.3
			h-5.6c0,1,0,2-0.1,3h5.7C421,1341.6,422.2,1342.3,422.9,1343.4z"/>
		<path class="st18" d="M364.6,1346.8c-0.1,0.7-0.1,1.4,0,2c0.1,1.1,0.2,2.2,0.4,3.3c1,0.2,2.1,0.4,3.1,0.5
			c-0.1-0.8-0.2-1.6-0.3-2.4C366.7,1349.1,365.6,1347.9,364.6,1346.8z"/>
		<path class="st18" d="M374,1341v-1.8c0-0.2,0-0.4,0.1-0.6h-0.4c-2.3,0-4.6,0.9-6.3,2.5c0.7,0.8,1.3,1.5,2,2.3
			c1.1-1.1,2.7-1.7,4.3-1.7h0.4C374.1,1341.4,374,1341.2,374,1341z"/>
		<path class="st18" d="M373.1,1349.3c-9.8-9.8-17.4-20.3-22.1-29.6c-1,0.3-2,0.7-2.9,1.1c4.8,9.7,12.6,20.4,22.9,30.7
			c0.6,0.6,1.2,1.2,1.9,1.8c1.6,0.2,3.3,0.3,4.9,0.5C376.2,1352.3,374.7,1350.8,373.1,1349.3z"/>
		<path class="st18" d="M402.7,1371.4c-5.7-2.9-11.7-6.8-17.6-11.4c-1.7,0-3.4-0.1-5-0.2c7.2,6.1,14.5,11,21.6,14.5
			C402,1373.4,402.4,1372.4,402.7,1371.4z"/>
		<path class="st18" d="M388.3,1274.6c-11.5,0-21,18-23.8,44.9c-0.3,2.6,0.6,5.2,2.3,7.1c1.8,1.9,4.3,3.1,6.9,3.1h0.4
			c-0.1-0.2-0.1-0.5-0.1-0.7v-1.8c0-0.2,0-0.3,0-0.5h-0.3c-1.8,0-3.4-0.8-4.6-2.1c-1.2-1.3-1.8-3-1.6-4.8
			c2.5-24.4,11.2-42.2,20.8-42.2c11.6,0,21.5,25.8,21.5,56.4c0,30.6-9.8,56.4-21.5,56.4c-8,0-15.4-12.5-19.1-30.9
			c-1.1-0.2-2.2-0.3-3.2-0.6c3.9,21,12.4,34.4,22.3,34.4c13.7,0,24.5-26.1,24.5-59.5C412.8,1300.8,402,1274.6,388.3,1274.6z"/>
		<path class="st18" d="M400.9,1326.4c-0.2-0.2-0.5-0.3-0.8-0.3h-1.8h-0.9v-1.9c0-1.8-1.4-3.2-3.2-3.2h-11.8c-1.8,0-3.2,1.4-3.2,3.2
			v1.9h-0.9h-1.8c-0.3,0-0.6,0.1-0.8,0.3s-0.3,0.5-0.3,0.8v0.9v0.9c0,0.3,0.1,0.6,0.3,0.8c0.2,0.2,0.5,0.3,0.8,0.3h1.8h0.9v2h-0.9
			h-1.8c-0.3,0-0.6,0.1-0.8,0.3s-0.3,0.5-0.3,0.8v0.9v0.9c0,0.3,0.1,0.6,0.3,0.8c0.2,0.2,0.5,0.3,0.8,0.3h1.8h0.9v2h-0.9h-1.8
			c-0.3,0-0.6,0.1-0.8,0.3c-0.2,0.2-0.3,0.5-0.3,0.8v0.9v0.9c0,0.3,0.1,0.6,0.3,0.8c0.2,0.2,0.5,0.3,0.8,0.3h1.8h0.9v1.9
			c0,1.8,1.4,3.2,3.2,3.2h11.8c1.8,0,3.2-1.4,3.2-3.2v-1.9h0.9h1.8c0.3,0,0.6-0.1,0.8-0.3s0.3-0.5,0.3-0.8v-0.9v-0.9
			c0-0.3-0.1-0.6-0.3-0.8c-0.2-0.2-0.5-0.3-0.8-0.3h-1.8h-0.9v-2h0.9h1.8c0.3,0,0.6-0.1,0.8-0.3s0.3-0.5,0.3-0.8v-0.9v-0.9
			c0-0.3-0.1-0.6-0.3-0.8c-0.2-0.2-0.5-0.3-0.8-0.3h-1.8h-0.9v-2h0.9h1.8c0.3,0,0.6-0.1,0.8-0.3c0.2-0.2,0.3-0.5,0.3-0.8v-0.9v-0.9
			C401.2,1326.9,401,1326.6,400.9,1326.4z"/>
	</g>
</g>
</svg>
