<?xml version="1.0" encoding="utf-8"?>
<!-- Generator: Adobe Illustrator 23.0.1, SVG Export Plug-In . SVG Version: 6.00 Build 0)  -->
<svg version="1.1" id="_x30_" xmlns="http://www.w3.org/2000/svg" xmlns:xlink="http://www.w3.org/1999/xlink" x="0px" y="0px"
	 viewBox="0 0 776.62 1546.47" style="enable-background:new 0 0 776.62 1546.47;" xml:space="preserve">
<style type="text/css">
	.st0{fill:#1D1D1B;}
	.st1{fill:#FFFFFF;}
	.st2{font-family:'Roboto-Medium';}
	.st3{font-size:23.094px;}
	.st4{font-size:23.09px;}
	.st5{font-family:'Roboto-LightItalic';}
	.st6{font-size:14px;}
	.st7{font-family:'Roboto-BoldItalic';}
	.st8{fill:none;stroke:#1D1D1B;stroke-width:0.6565;stroke-miterlimit:10;}
	.st9{font-family:'Roboto-Black';}
	.st10{font-size:21.8443px;}
	.st11{fill:none;stroke:#1D1D1B;stroke-width:0.4876;stroke-linecap:round;stroke-miterlimit:10;}
	.st12{fill:none;stroke:#1D1D1B;stroke-width:0.4876;stroke-miterlimit:10;}
	.st13{fill:none;stroke:#1D1D1B;stroke-width:0.4876;stroke-linecap:round;stroke-linejoin:bevel;stroke-miterlimit:10;}
	.st14{fill:#FFFFFF;stroke:#1D1D1B;stroke-width:0.6565;stroke-miterlimit:10;}
	.st15{font-family:'Roboto-BlackItalic';}
	.st16{font-size:23.1051px;}
	.st17{fill:none;stroke:#FF0000;stroke-width:2.835000e-03;stroke-linecap:round;stroke-linejoin:round;stroke-miterlimit:10;}
	.st18{fill:none;stroke:#0000FF;stroke-width:2.835000e-03;stroke-miterlimit:10;}
</style>
<g>
	<g>
		
			<ellipse transform="matrix(0.7071 -0.7071 0.7071 0.7071 -265.5599 519.5605)" class="st0" cx="494.39" cy="580.34" rx="20.95" ry="20.95"/>
		<text transform="matrix(1 0 0 1 480.4695 587.5077)" class="st1 st2 st3">B2</text>
	</g>
	<text transform="matrix(1 0 0 1 532.6828 577.6742)"><tspan x="0" y="0" class="st2 st4">Cap</tspan><tspan x="0" y="20.8" class="st5 st6">engrave the logo by cutting </tspan><tspan x="0" y="37.6" class="st5 st6">at 50%</tspan></text>
</g>
<g>
	<g>
		
			<ellipse transform="matrix(0.7071 -0.7071 0.7071 0.7071 -39.9344 426.1034)" class="st0" cx="494.39" cy="261.26" rx="20.95" ry="20.95"/>
		<text transform="matrix(1 0 0 1 480.4696 268.425)" class="st1 st2 st3">B1</text>
	</g>
	<text transform="matrix(1 0 0 1 532.6828 268.4245)" class="st2 st4">Spring case</text>
</g>
<g>
	<g>
		
			<ellipse transform="matrix(0.7071 -0.7071 0.7071 0.7071 -530.0997 629.1365)" class="st0" cx="494.39" cy="954.46" rx="20.95" ry="20.95"/>
		<text transform="matrix(1 0 0 1 480.4696 961.6236)" class="st1 st2 st3">B4</text>
	</g>
	<text transform="matrix(1 0 0 1 532.6828 961.2183)"><tspan x="0" y="0" class="st2 st4">Brace </tspan><tspan x="65.21" y="0" class="st7 st4">x2</tspan></text>
</g>
<g>
	<g>
		
			<ellipse transform="matrix(0.7071 -0.7071 0.7071 0.7071 -423.5793 585.0143)" class="st0" cx="494.39" cy="803.81" rx="20.95" ry="20.95"/>
		<text transform="matrix(1 0 0 1 480.4696 810.9809)" class="st1 st2 st3">B3</text>
	</g>
	<text transform="matrix(1 0 0 1 532.6828 810.9812)"><tspan x="0" y="0" class="st2 st4">Washer </tspan><tspan x="83.67" y="0" class="st7 st4">x2</tspan></text>
</g>
<line class="st8" x1="776.62" y1="1118.97" x2="0" y2="1118.97"/>
<text transform="matrix(1 0 0 1 550.1218 63.3075)" class="st9 st10">3mm thick</text>
<line class="st11" x1="776.62" y1="45.66" x2="673.68" y2="45.66"/>
<line class="st11" x1="776.62" y1="68.11" x2="673.68" y2="68.11"/>
<line class="st12" x1="0" y1="56.89" x2="529.65" y2="56.89"/>
<g>
	<polyline class="st13" points="693.81,51.2 688.27,45.66 682.72,51.2 	"/>
	<polyline class="st13" points="693.81,62.57 688.27,68.11 682.72,62.57 	"/>
	<line class="st13" x1="688.27" y1="45.66" x2="688.27" y2="68.11"/>
</g>
<circle class="st0" cx="529.65" cy="56.89" r="2.21"/>
<g>
	<path class="st14" d="M281.16,79.68H94.73c-12.59,0-22.79-10.21-22.79-22.79l0,0c0-12.59,10.21-22.79,22.79-22.79h186.43
		c12.59,0,22.79,10.21,22.79,22.79l0,0C303.95,69.47,293.75,79.68,281.16,79.68z"/>
	<text transform="matrix(1 0 0 1 110.4148 64.4643)" class="st15 st16">To laser cut</text>
</g>
<g>
	<path class="st14" d="M281.16,1141.76H94.73c-12.59,0-22.79-10.21-22.79-22.79l0,0c0-12.59,10.21-22.79,22.79-22.79h186.43
		c12.59,0,22.79,10.21,22.79,22.79l0,0C303.95,1131.56,293.75,1141.76,281.16,1141.76z"/>
	<text transform="matrix(1 0 0 1 107.9158 1126.5485)" class="st15 st16">Print Layout</text>
</g>
<g>
	<g id="CIRCLE_43_">
		<path class="st17" d="M-191.27,1344.56c-3.29,0-5.95-2.67-5.95-5.95s2.67-5.95,5.95-5.95c3.29,0,5.95,2.67,5.95,5.95
			S-187.98,1344.56-191.27,1344.56L-191.27,1344.56z"/>
	</g>
	<g id="ARC_139_">
		<path class="st17" d="M-205.44,1338.6c0-30.2-16.53-57.99-43.07-72.4"/>
	</g>
	<g id="ARC_138_">
		<path class="st17" d="M-205.44,1338.6c0,7.83,6.35,14.17,14.17,14.17c7.83,0,14.17-6.35,14.17-14.17"/>
	</g>
	<g id="ARC_137_">
		<path class="st17" d="M-177.09,1338.6c0-40.6-22.22-77.94-57.89-97.31"/>
	</g>
	<g id="LINE_83_">
		<line class="st17" x1="-248.51" y1="1266.2" x2="-234.99" y2="1241.29"/>
	</g>
</g>
<g>
	<g id="CIRCLE_42_">
		<path class="st17" d="M-533.33,1344.56c-3.29,0-5.95-2.67-5.95-5.95s2.67-5.95,5.95-5.95s5.95,2.67,5.95,5.95
			S-530.05,1344.56-533.33,1344.56L-533.33,1344.56z"/>
	</g>
	<g id="ARC_136_">
		<path class="st17" d="M-556.95,1237.43c3.81,2.75,9.12,1.88,11.87-1.93c0.78-1.08,1.29-2.33,1.5-3.64"/>
	</g>
	<g id="ARC_135_">
		<path class="st17" d="M-556.95,1237.43c-43.56-31.4-102.32-31.4-145.88,0"/>
	</g>
	<g id="ARC_134_">
		<path class="st17" d="M-716.2,1231.86c0.73,4.64,5.09,7.8,9.73,7.07c1.32-0.21,2.56-0.72,3.64-1.5"/>
	</g>
	<g id="ARC_133_">
		<path class="st17" d="M-716.2,1231.86c-1.54-9.74-10.69-16.39-20.43-14.85c-9.74,1.54-16.39,10.69-14.85,20.43
			c1.21,7.64,7.2,13.64,14.85,14.85"/>
	</g>
	<g id="ARC_132_">
		<path class="st17" d="M-731.06,1265.66c2.75-3.81,1.88-9.12-1.93-11.87c-1.08-0.78-2.33-1.29-3.64-1.5"/>
	</g>
	<g id="ARC_131_">
		<path class="st17" d="M-731.06,1265.66c-31.4,43.56-31.4,102.32,0,145.88"/>
	</g>
	<g id="ARC_130_">
		<path class="st17" d="M-736.63,1424.91c4.64-0.73,7.8-5.09,7.07-9.73c-0.21-1.32-0.72-2.56-1.5-3.64"/>
	</g>
	<g id="ARC_129_">
		<path class="st17" d="M-736.63,1424.91c-9.74,1.54-16.39,10.69-14.85,20.43c1.54,9.74,10.69,16.39,20.43,14.85
			c7.64-1.21,13.64-7.2,14.85-14.85"/>
	</g>
	<g id="ARC_128_">
		<path class="st17" d="M-702.83,1439.78c-3.81-2.75-9.12-1.88-11.87,1.93c-0.78,1.08-1.29,2.33-1.5,3.64"/>
	</g>
	<g id="ARC_127_">
		<path class="st17" d="M-702.83,1439.78c43.56,31.4,102.32,31.4,145.88,0"/>
	</g>
	<g id="ARC_126_">
		<path class="st17" d="M-543.58,1445.35c-0.73-4.64-5.09-7.8-9.73-7.07c-1.32,0.21-2.56,0.72-3.64,1.5"/>
	</g>
	<g id="ARC_125_">
		<path class="st17" d="M-543.58,1445.35c1.54,9.74,10.69,16.39,20.43,14.85s16.39-10.69,14.85-20.43
			c-1.21-7.64-7.2-13.64-14.85-14.85"/>
	</g>
	<g id="ARC_124_">
		<path class="st17" d="M-528.72,1411.54c-2.75,3.81-1.88,9.12,1.93,11.87c1.08,0.78,2.33,1.29,3.64,1.5"/>
	</g>
	<g id="ARC_123_">
		<path class="st17" d="M-528.72,1411.54c31.4-43.56,31.4-102.32,0-145.88"/>
	</g>
	<g id="ARC_122_">
		<path class="st17" d="M-523.15,1252.29c-4.64,0.73-7.8,5.09-7.07,9.73c0.21,1.32,0.72,2.56,1.5,3.64"/>
	</g>
	<g id="ARC_121_">
		<path class="st17" d="M-523.15,1252.29c9.74-1.54,16.39-10.69,14.85-20.43c-1.54-9.74-10.69-16.39-20.43-14.85
			c-7.64,1.21-13.64,7.2-14.85,14.85"/>
	</g>
	<g id="CIRCLE_41_">
		<path class="st17" d="M-629.89,1278.49c-2.58,0-4.68-2.09-4.68-4.68c0-2.58,2.09-4.68,4.68-4.68c2.58,0,4.68,2.09,4.68,4.68
			C-625.21,1276.4-627.31,1278.49-629.89,1278.49L-629.89,1278.49z"/>
	</g>
	<g id="CIRCLE_40_">
		<path class="st17" d="M-733.84,1239.19c-2.5,0-4.54-2.03-4.54-4.54c0-2.5,2.03-4.54,4.54-4.54c2.5,0,4.54,2.03,4.54,4.54
			C-729.3,1237.16-731.34,1239.19-733.84,1239.19L-733.84,1239.19z"/>
	</g>
	<g id="LINE_82_">
		<line class="st17" x1="-582.55" y1="1301.75" x2="-582.55" y2="1375.45"/>
	</g>
	<g id="LINE_81_">
		<line class="st17" x1="-593.04" y1="1375.45" x2="-582.55" y2="1375.45"/>
	</g>
	<g id="LINE_80_">
		<line class="st17" x1="-593.04" y1="1375.45" x2="-593.04" y2="1385.94"/>
	</g>
	<g id="LINE_79_">
		<line class="st17" x1="-668.73" y1="1385.94" x2="-593.04" y2="1385.94"/>
	</g>
	<g id="LINE_78_">
		<line class="st17" x1="-668.73" y1="1385.94" x2="-668.73" y2="1291.26"/>
	</g>
	<g id="LINE_77_">
		<line class="st17" x1="-593.04" y1="1291.26" x2="-668.73" y2="1291.26"/>
	</g>
	<g id="LINE_76_">
		<line class="st17" x1="-593.04" y1="1291.26" x2="-593.04" y2="1301.75"/>
	</g>
	<g id="LINE_75_">
		<line class="st17" x1="-593.04" y1="1301.75" x2="-582.55" y2="1301.75"/>
	</g>
	<g id="CIRCLE_39_">
		<path class="st17" d="M-525.94,1239.19c-2.5,0-4.54-2.03-4.54-4.54c0-2.5,2.03-4.54,4.54-4.54c2.5,0,4.54,2.03,4.54,4.54
			C-521.41,1237.16-523.44,1239.19-525.94,1239.19L-525.94,1239.19z"/>
	</g>
	<g id="CIRCLE_38_">
		<path class="st17" d="M-525.94,1447.09c-2.5,0-4.54-2.03-4.54-4.54c0-2.5,2.03-4.54,4.54-4.54c2.5,0,4.54,2.03,4.54,4.54
			C-521.41,1445.06-523.44,1447.09-525.94,1447.09L-525.94,1447.09z"/>
	</g>
	<g id="CIRCLE_37_">
		<path class="st17" d="M-733.84,1447.09c-2.5,0-4.54-2.03-4.54-4.54c0-2.5,2.03-4.54,4.54-4.54c2.5,0,4.54,2.03,4.54,4.54
			C-729.3,1445.06-731.34,1447.09-733.84,1447.09L-733.84,1447.09z"/>
	</g>
	<g id="CIRCLE_36_">
		<path class="st17" d="M-726.45,1344.56c-3.29,0-5.95-2.67-5.95-5.95s2.67-5.95,5.95-5.95s5.95,2.67,5.95,5.95
			S-723.16,1344.56-726.45,1344.56L-726.45,1344.56z"/>
	</g>
</g>
<g>
	<g id="LINE_74_">
		<line class="st17" x1="-320.47" y1="1391.51" x2="-320.47" y2="1385.84"/>
	</g>
	<g id="LINE_73_">
		<line class="st17" x1="-320.47" y1="1391.51" x2="-309.13" y2="1391.51"/>
	</g>
	<g id="LINE_72_">
		<line class="st17" x1="-335.21" y1="1385.84" x2="-320.47" y2="1385.84"/>
	</g>
	<g id="LINE_71_">
		<line class="st17" x1="-335.21" y1="1385.84" x2="-335.21" y2="1291.16"/>
	</g>
	<g id="LINE_70_">
		<line class="st17" x1="-240.53" y1="1291.16" x2="-335.21" y2="1291.16"/>
	</g>
	<g id="LINE_69_">
		<line class="st17" x1="-240.53" y1="1291.16" x2="-240.53" y2="1385.84"/>
	</g>
	<g id="LINE_68_">
		<line class="st17" x1="-255.27" y1="1385.84" x2="-240.53" y2="1385.84"/>
	</g>
	<g id="ARC_120_">
		<path class="st17" d="M-255.27,1385.84c-7.83,0-14.17,6.35-14.17,14.17"/>
	</g>
	<g id="LINE_67_">
		<line class="st17" x1="-269.45" y1="1400.01" x2="-269.45" y2="1418.65"/>
	</g>
	<g id="ARC_119_">
		<path class="st17" d="M-269.45,1418.65c44.27-10.18,71.9-54.31,61.73-98.58c-10.18-44.27-54.31-71.9-98.58-61.73
			s-71.9,54.31-61.73,98.58c7.06,30.7,31.03,54.67,61.73,61.73"/>
	</g>
	<g id="LINE_66_">
		<line class="st17" x1="-306.3" y1="1400.01" x2="-306.3" y2="1418.65"/>
	</g>
	<g id="ARC_118_">
		<path class="st17" d="M-306.3,1400.01c0-3.07-0.99-6.05-2.83-8.5"/>
	</g>
	<g id="CIRCLE_35_">
		<path class="st17" d="M-287.87,1279.52c-3.21,0-5.81-2.6-5.81-5.81c0-3.21,2.6-5.81,5.81-5.81s5.81,2.6,5.81,5.81
			C-282.06,1276.92-284.66,1279.52-287.87,1279.52L-287.87,1279.52z"/>
	</g>
</g>
<g>
	<g>
		<g>
			
				<ellipse transform="matrix(0.7071 -0.7071 0.7071 0.7071 -294.9597 -178.3119)" class="st0" cx="-362.72" cy="266.89" rx="20.95" ry="20.95"/>
			<text transform="matrix(1 0 0 1 -376.6144 274.0602)" class="st1 st2 st3">A1</text>
		</g>
		<text transform="matrix(1 0 0 1 -324.4236 274.0602)" class="st2 st4">Base</text>
	</g>
	<g>
		<g>
			
				<ellipse transform="matrix(0.7071 -0.7071 0.7071 0.7071 -470.4578 -105.6182)" class="st0" cx="-362.72" cy="515.08" rx="20.95" ry="20.95"/>
			<text transform="matrix(1 0 0 1 -376.6143 522.252)" class="st1 st2 st3">A2</text>
		</g>
		<text transform="matrix(1 0 0 1 -324.4236 522.2515)" class="st2 st4">Movuino case</text>
	</g>
	<g>
		<g>
			
				<ellipse transform="matrix(0.7071 -0.7071 0.7071 0.7071 -792.1599 27.6352)" class="st0" cx="-362.72" cy="970.04" rx="20.95" ry="20.95"/>
			<text transform="matrix(1 0 0 1 -376.6143 977.2075)" class="st1 st2 st3">A4</text>
		</g>
		<text transform="matrix(1 0 0 1 -324.4236 976.8022)" class="st2 st4">Spring support</text>
	</g>
	<g>
		<g>
			
				<ellipse transform="matrix(0.7071 -0.7071 0.7071 0.7071 -644.554 -33.5052)" class="st0" cx="-362.72" cy="761.29" rx="20.95" ry="20.95"/>
			<text transform="matrix(1 0 0 1 -376.6143 768.4612)" class="st1 st2 st3">A3</text>
		</g>
		<text transform="matrix(1 0 0 1 -324.4236 768.4615)" class="st2 st4">Spring crown</text>
	</g>
	<g>
		<g id="CIRCLE_34_">
			<path class="st17" d="M-589.53,948.5c0,3.29-2.67,5.95-5.95,5.95s-5.95-2.67-5.95-5.95c0-3.29,2.67-5.95,5.95-5.95
				S-589.53,945.21-589.53,948.5L-589.53,948.5z"/>
		</g>
		<g id="ARC_117_">
			<path class="st17" d="M-595.49,962.68c-30.2,0-57.99,16.53-72.4,43.07"/>
		</g>
		<g id="ARC_116_">
			<path class="st17" d="M-595.49,962.68c7.83,0,14.17-6.35,14.17-14.17c0-7.83-6.35-14.17-14.17-14.17"/>
		</g>
		<g id="ARC_115_">
			<path class="st17" d="M-595.49,934.33c-40.6,0-77.94,22.22-97.31,57.89"/>
		</g>
		<g id="LINE_65_">
			<line class="st17" x1="-667.88" y1="1005.75" x2="-692.8" y2="992.22"/>
		</g>
	</g>
	<g>
		<g id="CIRCLE_33_">
			<path class="st17" d="M-545.68,272.84c-3.29,0-5.95-2.67-5.95-5.95s2.67-5.95,5.95-5.95c3.29,0,5.95,2.67,5.95,5.95
				S-542.39,272.84-545.68,272.84L-545.68,272.84z"/>
		</g>
		<g id="ARC_114_">
			<path class="st17" d="M-569.3,165.72c3.81,2.75,9.12,1.88,11.87-1.93c0.78-1.08,1.29-2.33,1.5-3.64"/>
		</g>
		<g id="ARC_113_">
			<path class="st17" d="M-569.3,165.72c-43.56-31.4-102.32-31.4-145.88,0"/>
		</g>
		<g id="ARC_112_">
			<path class="st17" d="M-728.55,160.15c0.73,4.64,5.09,7.8,9.73,7.07c1.32-0.21,2.56-0.72,3.64-1.5"/>
		</g>
		<g id="ARC_111_">
			<path class="st17" d="M-728.55,160.15c-1.54-9.74-10.69-16.39-20.43-14.85c-9.74,1.54-16.39,10.69-14.85,20.43
				c1.21,7.64,7.2,13.64,14.85,14.85"/>
		</g>
		<g id="ARC_110_">
			<path class="st17" d="M-743.41,193.95c2.75-3.81,1.88-9.12-1.93-11.87c-1.08-0.78-2.33-1.29-3.64-1.5"/>
		</g>
		<g id="ARC_109_">
			<path class="st17" d="M-743.41,193.95c-31.4,43.56-31.4,102.32,0,145.88"/>
		</g>
		<g id="ARC_108_">
			<path class="st17" d="M-748.98,353.2c4.64-0.73,7.8-5.09,7.07-9.73c-0.21-1.32-0.72-2.56-1.5-3.64"/>
		</g>
		<g id="ARC_107_">
			<path class="st17" d="M-748.98,353.2c-9.74,1.54-16.39,10.69-14.85,20.43c1.54,9.74,10.69,16.39,20.43,14.85
				c7.64-1.21,13.64-7.2,14.85-14.85"/>
		</g>
		<g id="ARC_106_">
			<path class="st17" d="M-715.17,368.07c-3.81-2.75-9.12-1.88-11.87,1.93c-0.78,1.08-1.29,2.33-1.5,3.64"/>
		</g>
		<g id="ARC_105_">
			<path class="st17" d="M-715.17,368.07c43.56,31.4,102.32,31.4,145.88,0"/>
		</g>
		<g id="ARC_104_">
			<path class="st17" d="M-555.92,373.63c-0.73-4.64-5.09-7.8-9.73-7.07c-1.32,0.21-2.56,0.72-3.64,1.5"/>
		</g>
		<g id="ARC_103_">
			<path class="st17" d="M-555.92,373.63c1.54,9.74,10.69,16.39,20.43,14.85c9.74-1.54,16.39-10.69,14.85-20.43
				c-1.21-7.64-7.2-13.64-14.85-14.85"/>
		</g>
		<g id="ARC_102_">
			<path class="st17" d="M-541.06,339.83c-2.75,3.81-1.88,9.12,1.93,11.87c1.08,0.78,2.33,1.29,3.64,1.5"/>
		</g>
		<g id="ARC_101_">
			<path class="st17" d="M-541.06,339.83c31.4-43.56,31.4-102.32,0-145.88"/>
		</g>
		<g id="ARC_100_">
			<path class="st17" d="M-535.49,180.58c-4.64,0.73-7.8,5.09-7.07,9.73c0.21,1.32,0.72,2.56,1.5,3.64"/>
		</g>
		<g id="ARC_99_">
			<path class="st17" d="M-535.49,180.58c9.74-1.54,16.39-10.69,14.85-20.43c-1.54-9.74-10.69-16.39-20.43-14.85
				c-7.64,1.21-13.64,7.2-14.85,14.85"/>
		</g>
		<g id="CIRCLE_32_">
			<path class="st17" d="M-642.24,206.78c-2.58,0-4.68-2.09-4.68-4.68c0-2.58,2.09-4.68,4.68-4.68c2.58,0,4.68,2.09,4.68,4.68
				C-637.56,204.69-639.65,206.78-642.24,206.78L-642.24,206.78z"/>
		</g>
		<g id="CIRCLE_31_">
			<path class="st17" d="M-746.18,167.48c-2.5,0-4.54-2.03-4.54-4.54c0-2.5,2.03-4.54,4.54-4.54c2.5,0,4.54,2.03,4.54,4.54
				C-741.65,165.45-743.68,167.48-746.18,167.48L-746.18,167.48z"/>
		</g>
		<g id="LINE_64_">
			<line class="st17" x1="-594.9" y1="230.04" x2="-594.9" y2="303.74"/>
		</g>
		<g id="LINE_63_">
			<line class="st17" x1="-605.38" y1="303.74" x2="-594.9" y2="303.74"/>
		</g>
		<g id="LINE_62_">
			<line class="st17" x1="-605.38" y1="303.74" x2="-605.38" y2="314.23"/>
		</g>
		<g id="LINE_61_">
			<line class="st17" x1="-681.07" y1="314.23" x2="-605.38" y2="314.23"/>
		</g>
		<g id="LINE_60_">
			<line class="st17" x1="-681.07" y1="314.23" x2="-681.07" y2="219.55"/>
		</g>
		<g id="LINE_59_">
			<line class="st17" x1="-605.38" y1="219.55" x2="-681.07" y2="219.55"/>
		</g>
		<g id="LINE_58_">
			<line class="st17" x1="-605.38" y1="219.55" x2="-605.38" y2="230.04"/>
		</g>
		<g id="LINE_57_">
			<line class="st17" x1="-605.38" y1="230.04" x2="-594.9" y2="230.04"/>
		</g>
		<g id="CIRCLE_30_">
			<path class="st17" d="M-538.29,167.48c-2.5,0-4.54-2.03-4.54-4.54c0-2.5,2.03-4.54,4.54-4.54c2.5,0,4.54,2.03,4.54,4.54
				C-533.75,165.45-535.78,167.48-538.29,167.48L-538.29,167.48z"/>
		</g>
		<g id="CIRCLE_29_">
			<path class="st17" d="M-538.29,375.38c-2.5,0-4.54-2.03-4.54-4.54c0-2.5,2.03-4.54,4.54-4.54c2.5,0,4.54,2.03,4.54,4.54
				C-533.75,373.35-535.78,375.38-538.29,375.38L-538.29,375.38z"/>
		</g>
		<g id="CIRCLE_28_">
			<path class="st17" d="M-746.18,375.38c-2.5,0-4.54-2.03-4.54-4.54c0-2.5,2.03-4.54,4.54-4.54c2.5,0,4.54,2.03,4.54,4.54
				C-741.65,373.35-743.68,375.38-746.18,375.38L-746.18,375.38z"/>
		</g>
		<g id="CIRCLE_27_">
			<path class="st17" d="M-738.79,272.84c-3.29,0-5.95-2.67-5.95-5.95s2.67-5.95,5.95-5.95c3.29,0,5.95,2.67,5.95,5.95
				S-735.5,272.84-738.79,272.84L-738.79,272.84z"/>
		</g>
	</g>
	<g>
		<g id="LINE_56_">
			<line class="st17" x1="-674.83" y1="569.15" x2="-674.83" y2="563.48"/>
		</g>
		<g id="LINE_55_">
			<line class="st17" x1="-674.83" y1="569.15" x2="-663.49" y2="569.15"/>
		</g>
		<g id="LINE_54_">
			<line class="st17" x1="-689.57" y1="563.48" x2="-674.83" y2="563.48"/>
		</g>
		<g id="LINE_53_">
			<line class="st17" x1="-689.57" y1="563.48" x2="-689.57" y2="468.8"/>
		</g>
		<g id="LINE_52_">
			<line class="st17" x1="-594.9" y1="468.8" x2="-689.57" y2="468.8"/>
		</g>
		<g id="LINE_51_">
			<line class="st17" x1="-594.9" y1="468.8" x2="-594.9" y2="563.48"/>
		</g>
		<g id="LINE_50_">
			<line class="st17" x1="-609.64" y1="563.48" x2="-594.9" y2="563.48"/>
		</g>
		<g id="ARC_98_">
			<path class="st17" d="M-609.64,563.48c-7.83,0-14.17,6.35-14.17,14.17"/>
		</g>
		<g id="LINE_49_">
			<line class="st17" x1="-623.81" y1="577.65" x2="-623.81" y2="596.29"/>
		</g>
		<g id="ARC_97_">
			<path class="st17" d="M-623.81,596.29c44.27-10.18,71.9-54.31,61.73-98.58c-10.18-44.27-54.31-71.9-98.58-61.73
				c-44.27,10.18-71.9,54.31-61.73,98.58c7.06,30.7,31.03,54.67,61.73,61.73"/>
		</g>
		<g id="LINE_48_">
			<line class="st17" x1="-660.66" y1="577.65" x2="-660.66" y2="596.29"/>
		</g>
		<g id="ARC_96_">
			<path class="st17" d="M-660.66,577.65c0-3.07-0.99-6.05-2.83-8.5"/>
		</g>
		<g id="CIRCLE_26_">
			<path class="st17" d="M-642.24,457.16c-3.21,0-5.81-2.6-5.81-5.81c0-3.21,2.6-5.81,5.81-5.81c3.21,0,5.81,2.6,5.81,5.81
				C-636.42,454.56-639.03,457.16-642.24,457.16L-642.24,457.16z"/>
		</g>
	</g>
	<g>
		<g id="ARC_95_">
			<path class="st17" d="M-643.57,671.26c-13.15,0-26.14,2.88-38.05,8.44"/>
		</g>
		<g id="ARC_94_">
			<path class="st17" d="M-687.14,667.87c-3.26,1.52-4.68,5.4-3.15,8.66c1.52,3.26,5.4,4.68,8.66,3.15"/>
		</g>
		<g id="ARC_93_">
			<path class="st17" d="M-647.51,872.05c0.11,0.03,0.22,0.05,0.33,0.05"/>
		</g>
		<g id="ARC_92_">
			<path class="st17" d="M-652.46,846.09c-6.5,4.91-7.79,14.15-2.88,20.65c1.95,2.59,4.71,4.46,7.83,5.32"/>
		</g>
		<g id="ARC_91_">
			<path class="st17" d="M-724.31,779.72c7.81,34.2,36.32,59.77,71.16,63.83"/>
		</g>
		<g id="ARC_90_">
			<path class="st17" d="M-570.8,721.78c-21.82-40.19-72.09-55.08-112.29-33.26c-20.91,11.35-35.93,31.15-41.22,54.35"/>
		</g>
		<g id="LINE_47_">
			<line class="st17" x1="-570.8" y1="721.78" x2="-546.14" y2="708.39"/>
		</g>
		<g id="ARC_89_">
			<path class="st17" d="M-647.17,872.11c61.2,1.99,112.42-46.01,114.41-107.21c0.64-19.69-3.98-39.19-13.38-56.5"/>
		</g>
		<g id="CIRCLE_25_">
			<path class="st17" d="M-721.62,834.67c0-2.58,2.09-4.68,4.68-4.68c2.58,0,4.68,2.09,4.68,4.68c0,2.58-2.09,4.68-4.68,4.68
				C-719.53,839.34-721.62,837.25-721.62,834.67L-721.62,834.67z"/>
		</g>
		<g id="CIRCLE_24_">
			<path class="st17" d="M-574.88,687.92c0-2.58,2.09-4.68,4.68-4.68c2.58,0,4.68,2.09,4.68,4.68c0,2.58-2.09,4.68-4.68,4.68
				C-572.78,692.6-574.88,690.5-574.88,687.92L-574.88,687.92z"/>
		</g>
		<g id="ARC_88_">
			<path class="st17" d="M-643.57,658.22c-15.05,0-29.92,3.3-43.56,9.66"/>
		</g>
		<g id="LINE_46_">
			<line class="st17" x1="-724.31" y1="742.87" x2="-749.21" y2="742.87"/>
		</g>
		<g id="ARC_87_">
			<path class="st17" d="M-762.75,724.52c-2.31,7.48,1.88,15.41,9.36,17.72c1.35,0.42,2.76,0.63,4.18,0.63"/>
		</g>
		<g id="ARC_86_">
			<path class="st17" d="M-762.75,798.07c20.31,65.82,90.14,102.71,155.96,82.4c65.82-20.31,102.71-90.14,82.4-155.96
				c-20.31-65.82-90.14-102.71-155.96-82.4c-39.4,12.16-70.24,43-82.4,82.4"/>
		</g>
		<g id="ARC_85_">
			<path class="st17" d="M-749.21,779.72c-7.83,0-14.17,6.35-14.17,14.17c0,1.42,0.21,2.83,0.63,4.18"/>
		</g>
		<g id="LINE_45_">
			<line class="st17" x1="-724.31" y1="779.72" x2="-749.21" y2="779.72"/>
		</g>
		<g id="ARC_84_">
			<path class="st17" d="M-652.45,846.09c0.62-0.47,0.75-1.36,0.28-1.99c-0.23-0.31-0.58-0.51-0.97-0.55"/>
		</g>
		<g id="ARC_83_">
			<path class="st17" d="M-643.57,671.26c3.6,0,6.52-2.92,6.52-6.52s-2.92-6.52-6.52-6.52"/>
		</g>
	</g>
</g>
<g>
	<g id="ARC_82_">
		<path class="st17" d="M-377.91,1338.55c0,13.15,2.88,26.14,8.44,38.05"/>
	</g>
	<g id="ARC_81_">
		<path class="st17" d="M-381.29,1382.11c1.52,3.26,5.4,4.68,8.66,3.15c3.26-1.52,4.68-5.4,3.15-8.66"/>
	</g>
	<g id="ARC_80_">
		<path class="st17" d="M-177.11,1342.48c0.03-0.11,0.05-0.22,0.05-0.33"/>
	</g>
	<g id="ARC_79_">
		<path class="st17" d="M-203.08,1347.43c4.9,6.5,14.15,7.79,20.65,2.88c2.59-1.95,4.46-4.71,5.32-7.83"/>
	</g>
	<g id="ARC_78_">
		<path class="st17" d="M-269.45,1419.28c34.2-7.81,59.77-36.32,63.83-71.16"/>
	</g>
	<g id="ARC_77_">
		<path class="st17" d="M-327.39,1265.78c-40.19,21.82-55.08,72.09-33.26,112.29c11.35,20.91,31.15,35.93,54.35,41.22"/>
	</g>
	<g id="LINE_44_">
		<line class="st17" x1="-327.39" y1="1265.78" x2="-340.78" y2="1241.12"/>
	</g>
	<g id="ARC_76_">
		<path class="st17" d="M-177.06,1342.15c1.99-61.2-46.01-112.42-107.21-114.41c-19.69-0.64-39.19,3.98-56.5,13.38"/>
	</g>
	<g id="CIRCLE_23_">
		<path class="st17" d="M-214.5,1416.6c-2.58,0-4.68-2.09-4.68-4.68c0-2.58,2.09-4.68,4.68-4.68c2.58,0,4.68,2.09,4.68,4.68
			C-209.82,1414.51-211.92,1416.6-214.5,1416.6L-214.5,1416.6z"/>
	</g>
	<g id="CIRCLE_22_">
		<path class="st17" d="M-361.25,1269.85c-2.58,0-4.68-2.09-4.68-4.68s2.09-4.68,4.68-4.68s4.68,2.09,4.68,4.68
			S-358.66,1269.85-361.25,1269.85L-361.25,1269.85z"/>
	</g>
	<g id="ARC_75_">
		<path class="st17" d="M-390.95,1338.55c0,15.05,3.3,29.92,9.66,43.56"/>
	</g>
	<g id="LINE_43_">
		<line class="st17" x1="-306.3" y1="1419.28" x2="-306.3" y2="1444.19"/>
	</g>
	<g id="ARC_74_">
		<path class="st17" d="M-324.65,1457.73c7.48,2.31,15.41-1.88,17.72-9.36c0.42-1.35,0.63-2.76,0.63-4.18"/>
	</g>
	<g id="ARC_73_">
		<path class="st17" d="M-251.09,1457.73c65.82-20.31,102.71-90.14,82.4-155.96c-20.31-65.82-90.14-102.71-155.96-82.4
			c-65.82,20.31-102.71,90.14-82.4,155.96c12.16,39.4,43,70.24,82.4,82.4"/>
	</g>
	<g id="ARC_72_">
		<path class="st17" d="M-269.45,1444.19c0,7.83,6.35,14.17,14.17,14.17c1.42,0,2.83-0.21,4.18-0.63"/>
	</g>
	<g id="LINE_42_">
		<line class="st17" x1="-269.45" y1="1419.28" x2="-269.45" y2="1444.19"/>
	</g>
	<g id="ARC_71_">
		<path class="st17" d="M-203.08,1347.43c-0.47-0.62-1.36-0.75-1.99-0.28c-0.31,0.23-0.51,0.58-0.55,0.97"/>
	</g>
	<g id="ARC_70_">
		<path class="st17" d="M-377.91,1338.55c0-3.6-2.92-6.52-6.52-6.52c-3.6,0-6.52,2.92-6.52,6.52"/>
	</g>
</g>
<line class="st8" x1="-80.48" y1="1118.97" x2="-857.11" y2="1118.97"/>
<text transform="matrix(1 0 0 1 -306.9846 63.3075)" class="st9 st10">6mm thick</text>
<line class="st11" x1="-80.48" y1="45.66" x2="-183.43" y2="45.66"/>
<line class="st11" x1="-80.48" y1="68.11" x2="-183.43" y2="68.11"/>
<line class="st12" x1="-857.11" y1="56.89" x2="-327.45" y2="56.89"/>
<g>
	<polyline class="st13" points="-163.3,51.2 -168.84,45.66 -174.38,51.2 	"/>
	<polyline class="st13" points="-163.3,62.57 -168.84,68.11 -174.38,62.57 	"/>
	<line class="st13" x1="-168.84" y1="45.66" x2="-168.84" y2="68.11"/>
</g>
<circle class="st0" cx="-327.45" cy="56.89" r="2.21"/>
<g>
	<path class="st14" d="M-575.95,79.68h-186.43c-12.59,0-22.79-10.21-22.79-22.79l0,0c0-12.59,10.21-22.79,22.79-22.79h186.43
		c12.59,0,22.79,10.21,22.79,22.79l0,0C-553.15,69.47-563.36,79.68-575.95,79.68z"/>
	<text transform="matrix(1 0 0 1 -746.6916 64.4643)" class="st15 st16">To laser cut</text>
</g>
<g>
	<path class="st14" d="M-575.95,1141.76h-186.43c-12.59,0-22.79-10.21-22.79-22.79l0,0c0-12.59,10.21-22.79,22.79-22.79h186.43
		c12.59,0,22.79,10.21,22.79,22.79l0,0C-553.15,1131.56-563.36,1141.76-575.95,1141.76z"/>
	<text transform="matrix(1 0 0 1 -749.1906 1126.5485)" class="st15 st16">Print Layout</text>
</g>
<g>
	<g id="CIRCLE">
		<path class="st17" d="M147.41,195.63c-3.21,0-5.81-2.6-5.81-5.81c0-3.21,2.6-5.81,5.81-5.81c3.21,0,5.81,2.6,5.81,5.81
			C153.22,193.03,150.62,195.63,147.41,195.63L147.41,195.63z"/>
	</g>
	<g id="CIRCLE_1_">
		<path class="st17" d="M294.16,342.37c-3.21,0-5.81-2.6-5.81-5.81c0-3.21,2.6-5.81,5.81-5.81c3.21,0,5.81,2.6,5.81,5.81
			C299.97,339.77,297.37,342.37,294.16,342.37L294.16,342.37z"/>
	</g>
	<g id="ARC_37_">
		<path class="st17" d="M192.89,381.59c5.35-1.97,8.91-7.07,8.91-12.77"/>
	</g>
	<g id="ARC_36_">
		<path class="st17" d="M239.78,368.83c0,5.7,3.56,10.8,8.91,12.77"/>
	</g>
	<g id="ARC_35_">
		<path class="st17" d="M251.65,384.03c66.74-17.05,107.02-84.97,89.97-151.71c-17.05-66.74-84.97-107.02-151.71-89.97
			c-66.74,17.05-107.02,84.97-89.97,151.71c11.29,44.18,45.79,78.69,89.97,89.97"/>
	</g>
	<g id="ARC_34_">
		<path class="st17" d="M249.93,382.99c-0.16-0.64-0.62-1.17-1.24-1.4"/>
	</g>
	<g id="ARC_33_">
		<path class="st17" d="M249.93,382.99c0.18,0.76,0.95,1.23,1.71,1.05c0.01,0,0.01,0,0.02,0"/>
	</g>
	<g id="ARC_32_">
		<path class="st17" d="M192.89,381.59c-0.62,0.23-1.09,0.75-1.24,1.4"/>
	</g>
	<g id="ARC_31_">
		<path class="st17" d="M189.91,384.03c0.76,0.19,1.53-0.26,1.72-1.02c0-0.01,0-0.01,0-0.02"/>
	</g>
	<g id="LINE_3_">
		<line class="st17" x1="239.78" y1="368.83" x2="239.78" y2="354.32"/>
	</g>
	<g id="ARC_30_">
		<path class="st17" d="M249.1,341.01c-5.6,2.04-9.33,7.36-9.33,13.32"/>
	</g>
	<g id="LINE_2_">
		<line class="st17" x1="201.79" y1="368.83" x2="201.79" y2="354.32"/>
	</g>
	<g id="ARC_29_">
		<path class="st17" d="M201.79,354.32c0-5.96-3.73-11.28-9.33-13.32"/>
	</g>
	<g id="ARC_28_">
		<path class="st17" d="M331.47,266.24c0.57-20.61-4.63-40.96-15-58.78"/>
	</g>
	<g id="ARC_27_">
		<path class="st17" d="M316.47,207.46c-3.81-6.55-12.1-8.94-18.82-5.43"/>
	</g>
	<g id="ARC_26_">
		<path class="st17" d="M110.1,260.14c-0.57,20.61,4.63,40.96,15,58.78"/>
	</g>
	<g id="ARC_25_">
		<path class="st17" d="M125.1,318.92c3.81,6.55,12.1,8.94,18.82,5.43"/>
	</g>
	<g id="ARC_24_">
		<path class="st17" d="M304.4,269.63c3.56,7.15,12.24,10.06,19.38,6.5c3.93-1.96,6.76-5.6,7.69-9.89"/>
	</g>
	<g id="ARC_14_">
		<path class="st17" d="M249.1,341.01c30.44-11.08,51.62-38.88,54.22-71.17"/>
	</g>
	<g id="ARC_15_">
		<path class="st17" d="M304.4,269.63c-0.14-0.28-0.48-0.39-0.76-0.26c-0.18,0.09-0.3,0.26-0.31,0.46"/>
	</g>
	<g id="ARC_16_">
		<path class="st17" d="M297.65,202.04c-4.48,2.34-8.05,6.09-10.18,10.67"/>
	</g>
	<g id="ARC_17_">
		<path class="st17" d="M286.51,212.81c0.19,0.25,0.55,0.3,0.79,0.11c0.07-0.06,0.13-0.13,0.17-0.21"/>
	</g>
	<g id="ARC_18_">
		<path class="st17" d="M137.17,256.75c-3.56-7.15-12.24-10.06-19.38-6.5c-3.93,1.96-6.76,5.6-7.69,9.89"/>
	</g>
	<g id="ARC_19_">
		<path class="st17" d="M286.51,212.81c-27.82-36.3-79.8-43.17-116.1-15.35c-18.6,14.25-30.28,35.72-32.17,59.08"/>
	</g>
	<g id="ARC_20_">
		<path class="st17" d="M137.17,256.75c0.14,0.28,0.48,0.39,0.76,0.25c0.18-0.09,0.3-0.26,0.31-0.46"/>
	</g>
	<g id="ARC_21_">
		<path class="st17" d="M155.06,313.57c9.6,12.52,22.58,22.04,37.4,27.44"/>
	</g>
	<g id="ARC_22_">
		<path class="st17" d="M143.91,324.34c4.48-2.34,8.05-6.09,10.18-10.67"/>
	</g>
	<g id="ARC_23_">
		<path class="st17" d="M155.06,313.57c-0.19-0.25-0.55-0.3-0.79-0.11c-0.07,0.06-0.13,0.13-0.17,0.21"/>
	</g>
</g>
<g>
	<g id="CIRCLE_3_">
		<path class="st17" d="M199.52,803.81c0-11.74,9.52-21.26,21.26-21.26c11.74,0,21.26,9.52,21.26,21.26s-9.52,21.26-21.26,21.26
			C209.04,825.07,199.52,815.55,199.52,803.81L199.52,803.81z"/>
	</g>
	<g id="CIRCLE_2_">
		<path class="st17" d="M214.83,803.81c0-3.29,2.67-5.95,5.95-5.95c3.29,0,5.95,2.67,5.95,5.95s-2.67,5.95-5.95,5.95
			C217.5,809.77,214.83,807.1,214.83,803.81L214.83,803.81z"/>
	</g>
</g>
<g>
	<g id="CIRCLE_15_">
		<path class="st17" d="M261.59,1230.62c0,11.74,9.52,21.26,21.26,21.26c11.74,0,21.26-9.52,21.26-21.26
			c0-11.74-9.52-21.26-21.26-21.26C271.11,1209.36,261.59,1218.88,261.59,1230.62L261.59,1230.62z"/>
	</g>
	<g id="CIRCLE_14_">
		<path class="st17" d="M276.89,1230.62c0,3.29,2.67,5.95,5.95,5.95c3.29,0,5.95-2.67,5.95-5.95s-2.67-5.95-5.95-5.95
			C279.56,1224.67,276.89,1227.33,276.89,1230.62L276.89,1230.62z"/>
	</g>
</g>
<g>
	<g id="CIRCLE_13_">
		<path class="st17" d="M514.83,1230.62c0,11.74-9.52,21.26-21.26,21.26c-11.74,0-21.26-9.52-21.26-21.26
			c0-11.74,9.52-21.26,21.26-21.26C505.31,1209.36,514.83,1218.88,514.83,1230.62L514.83,1230.62z"/>
	</g>
	<g id="CIRCLE_12_">
		<path class="st17" d="M499.52,1230.62c0,3.29-2.67,5.95-5.95,5.95c-3.29,0-5.95-2.67-5.95-5.95s2.67-5.95,5.95-5.95
			C496.86,1224.67,499.52,1227.33,499.52,1230.62L499.52,1230.62z"/>
	</g>
</g>
<g>
	<g id="CIRCLE_5_">
		<path class="st17" d="M206.61,954.46c0-7.83,6.35-14.17,14.17-14.17c7.83,0,14.17,6.35,14.17,14.17s-6.35,14.17-14.17,14.17
			C212.96,968.63,206.61,962.28,206.61,954.46L206.61,954.46z"/>
	</g>
	<g id="CIRCLE_4_">
		<path class="st17" d="M214.83,954.46c0-3.29,2.67-5.95,5.95-5.95c3.29,0,5.95,2.67,5.95,5.95s-2.67,5.95-5.95,5.95
			C217.5,960.41,214.83,957.74,214.83,954.46L214.83,954.46z"/>
	</g>
</g>
<g>
	<g id="CIRCLE_9_">
		<path class="st17" d="M290.53,1374.32c0-7.83,6.35-14.17,14.17-14.17c7.83,0,14.17,6.35,14.17,14.17
			c0,7.83-6.35,14.17-14.17,14.17C296.87,1388.49,290.53,1382.14,290.53,1374.32L290.53,1374.32z"/>
	</g>
	<g id="CIRCLE_8_">
		<path class="st17" d="M298.75,1374.32c0-3.29,2.67-5.95,5.95-5.95c3.29,0,5.95,2.67,5.95,5.95s-2.67,5.95-5.95,5.95
			C301.41,1380.27,298.75,1377.6,298.75,1374.32L298.75,1374.32z"/>
	</g>
</g>
<g>
	<g id="CIRCLE_11_">
		<path class="st17" d="M485.01,1290.08c0,7.83-6.35,14.17-14.17,14.17c-7.83,0-14.17-6.35-14.17-14.17
			c0-7.83,6.35-14.17,14.17-14.17C478.66,1275.9,485.01,1282.25,485.01,1290.08L485.01,1290.08z"/>
	</g>
	<g id="CIRCLE_10_">
		<path class="st17" d="M476.79,1290.08c0,3.29-2.67,5.95-5.95,5.95c-3.29,0-5.95-2.67-5.95-5.95s2.67-5.95,5.95-5.95
			C474.12,1284.12,476.79,1286.79,476.79,1290.08L476.79,1290.08z"/>
	</g>
</g>
<g>
	<g>
		<g id="ARC">
			<path class="st17" d="M154.72,608.09c3.87-10.14,0.11-21.6-9.01-27.48"/>
		</g>
		<g id="ARC_1_">
			<path class="st17" d="M139.36,570.7c0.58,4.07,2.9,7.69,6.35,9.91"/>
		</g>
		<g id="ARC_2_">
			<path class="st17" d="M302.2,547.51c-0.58-4.07-2.9-7.69-6.35-9.91"/>
		</g>
		<g id="ARC_3_">
			<path class="st17" d="M286.84,510.11c-3.87,10.14-0.11,21.6,9.01,27.48"/>
		</g>
		<g id="ARC_4_">
			<path class="st17" d="M286.84,510.11c-27.06-36.48-78.57-44.12-115.05-17.07c-24.24,17.97-36.68,47.78-32.43,77.65"/>
		</g>
		<g id="ARC_5_">
			<path class="st17" d="M248.59,636.5c36.72-13.19,59.11-50.37,53.61-88.99"/>
		</g>
		<g id="LINE">
			<line class="st17" x1="239.21" y1="664.74" x2="239.21" y2="649.84"/>
		</g>
		<g id="ARC_6_">
			<path class="st17" d="M248.59,636.5c-5.63,2.02-9.38,7.36-9.38,13.34"/>
		</g>
		<g id="ARC_7_">
			<path class="st17" d="M154.72,608.09c9.67,13.04,22.98,22.92,38.25,28.41"/>
		</g>
		<g id="LINE_1_">
			<line class="st17" x1="202.36" y1="649.84" x2="202.36" y2="664.74"/>
		</g>
		<g id="ARC_8_">
			<path class="st17" d="M202.36,649.84c0-5.98-3.75-11.32-9.38-13.34"/>
		</g>
		<g id="ARC_9_">
			<path class="st17" d="M193.08,678.04c5.57-2.05,9.28-7.36,9.28-13.3"/>
		</g>
		<g id="ARC_10_">
			<path class="st17" d="M193.08,678.04c-0.73,0.27-1.11,1.09-0.84,1.82c0.17,0.45,0.55,0.79,1.02,0.89"/>
		</g>
		<g id="ARC_11_">
			<path class="st17" d="M239.21,664.74c0,5.94,3.7,11.25,9.28,13.3"/>
		</g>
		<g id="ARC_12_">
			<path class="st17" d="M193.26,680.75c18.12,4.1,36.93,4.1,55.05,0"/>
		</g>
		<g id="ARC_13_">
			<path class="st17" d="M248.31,680.75c0.76-0.17,1.24-0.93,1.07-1.7c-0.11-0.47-0.44-0.85-0.89-1.02"/>
		</g>
	</g>
	<g>
		<path class="st18" d="M263.55,578.29c-0.92,0.36-1.88,0.71-2.85,1.05c3.47,8.97,3.58,16.14-0.01,19.73
			c-3.56,3.56-10.72,3.53-19.82-0.01c-0.34,0.98-0.69,1.93-1.05,2.85c4.92,1.91,9.32,2.87,13.08,2.87c4.18,0,7.57-1.19,9.94-3.56
			C267.33,596.72,267.48,588.51,263.55,578.29z"/>
		<g>
			<path class="st18" d="M235.08,564.28v1.81c0,0.21-0.04,0.41-0.08,0.61l5.62,0c0.06-1,0.1-2.02,0.13-3.03l-5.76,0
				C235.04,563.87,235.08,564.07,235.08,564.28z"/>
			<path class="st18" d="M240.81,557.61c-0.17,0.02-0.35,0.04-0.53,0.04h-5.29c0.05,0.2,0.08,0.4,0.08,0.62v1.81
				c0,0.21-0.03,0.41-0.08,0.61h5.29c0.18,0,0.35-0.02,0.53-0.04c0.01-0.49,0.01-0.98,0.01-1.48
				C240.82,558.64,240.82,558.12,240.81,557.61z"/>
		</g>
		<path class="st18" d="M246.29,551.04c0.11,1.75,0.19,3.52,0.24,5.29C247.21,554.57,247.11,552.68,246.29,551.04z"/>
		<path class="st18" d="M234.49,538.33c-9.05-8.47-18.32-15.04-26.78-19.28c-0.39,0.93-0.76,1.9-1.13,2.9
			c8.47,4.31,17.88,11.03,26.83,19.54C233.53,540.36,233.9,539.29,234.49,538.33z"/>
		<path class="st18" d="M239.27,547.39c0.39,0.42,0.78,0.84,1.16,1.26c-0.12-1.65-0.28-3.29-0.46-4.91
			c-0.24-0.24-0.47-0.49-0.71-0.73V547.39z"/>
		<path class="st18" d="M188.65,516.56c3.46,0,7.62,0.98,12.19,2.79c0.35-0.99,0.72-1.94,1.09-2.87
			c-10.11-3.94-18.54-4.03-23.2,0.63c-4.67,4.67-4.57,13.15-0.59,23.3c0.92-0.38,1.88-0.75,2.86-1.1
			c-3.55-8.93-3.9-16.28-0.13-20.05C182.71,517.42,185.37,516.56,188.65,516.56z"/>
		<path class="st18" d="M245.13,536.76c0.02,0,0.04,0.01,0.07,0.01l0,0C245.17,536.76,245.15,536.76,245.13,536.76z"/>
		<path class="st18" d="M245.19,536.77c0.19,1.05,0.37,2.11,0.53,3.18h0c19.02,3.64,31.5,11.15,31.5,19.21
			c0,8.17-12.74,15.45-30.92,19.06c0.01,0,0.01,0,0.01,0c-0.13,1.09-0.27,2.17-0.43,3.23c20.46-3.84,34.37-12.27,34.37-22.29
			C280.25,549.29,266.6,540.66,245.19,536.77z"/>
		<g>
			<path class="st18" d="M164.35,559.16c0-7.08,9.9-13.96,25.84-17.97c0.25-0.06,0.5-0.09,0.75-0.09c0.68,0,1.34,0.23,1.89,0.66
				c0.77,0.6,1.21,1.51,1.2,2.48l-0.06,10.24c-0.01,1.65,0.63,3.2,1.79,4.37c1.16,1.17,2.71,1.82,4.36,1.82h6.45
				c-0.05-0.2-0.08-0.4-0.08-0.61v-1.81c0-0.21,0.04-0.42,0.08-0.61h-6.45c-0.84,0-1.62-0.33-2.21-0.92
				c-0.59-0.59-0.91-1.38-0.91-2.22l0.02-3.6c-1.13-1.92-1.68-4.18-1.45-6.49c0.12-1.22,0.28-2.43,0.43-3.63
				c-0.36-0.53-0.79-1.01-1.31-1.41c-1.5-1.18-3.42-1.59-5.25-1.12c-17.62,4.43-28.14,12.24-28.14,20.91
				c0,13.74,26.12,24.5,59.47,24.5c6.31,0,12.34-0.4,18-1.11c0.19-1.04,0.37-2.1,0.53-3.17c-5.84,0.8-12.07,1.25-18.53,1.25
				C190.19,580.63,164.35,570.8,164.35,559.16z"/>
			<path class="st18" d="M234.33,550.44c0.48,0.49,0.75,1.12,0.75,1.8v1.39c1.66-1.1,2.76-2.99,2.76-5.13v-6.21
				c0-0.91,0.4-1.77,1.09-2.36c0.16-0.14,0.33-0.25,0.52-0.35c-0.15-1.04-0.32-2.07-0.5-3.09c-0.72,0.25-1.4,0.63-2,1.14
				c-1.36,1.17-2.14,2.87-2.14,4.67v6.21c0,0.68-0.23,1.31-0.6,1.83C234.24,550.37,234.29,550.4,234.33,550.44z"/>
		</g>
		<path class="st18" d="M255.36,568.49c1.04,1.75,1.96,3.45,2.79,5.12c0.99-0.34,1.94-0.7,2.86-1.07c-0.9-1.82-1.91-3.68-3.04-5.59
			c-1.2-2.02-3.4-3.28-5.76-3.28l-5.65,0c-0.02,1.02-0.05,2.03-0.08,3.03l5.73,0C253.5,566.7,254.7,567.39,255.36,568.49z"/>
		<path class="st18" d="M197.04,571.82c-0.08,0.67-0.09,1.36-0.02,2.04c0.11,1.12,0.24,2.21,0.38,3.29
			c1.03,0.19,2.08,0.36,3.13,0.52c-0.11-0.8-0.2-1.61-0.29-2.42C199.15,574.11,198.08,572.97,197.04,571.82z"/>
		<path class="st18" d="M206.49,566.09v-1.81c0-0.21,0.04-0.41,0.08-0.61h-0.35c-2.34,0-4.6,0.9-6.3,2.49
			c0.66,0.76,1.33,1.52,2.02,2.27c1.15-1.1,2.69-1.72,4.29-1.72h0.35C206.53,566.5,206.49,566.3,206.49,566.09z"/>
		<path class="st18" d="M205.6,574.34c-9.78-9.78-17.44-20.29-22.15-29.63c-1.01,0.35-1.99,0.72-2.92,1.09
			c4.79,9.66,12.65,20.41,22.92,30.68c0.62,0.62,1.24,1.23,1.86,1.83c1.62,0.19,3.27,0.35,4.94,0.48
			C208.69,577.36,207.13,575.88,205.6,574.34z"/>
		<path class="st18" d="M235.21,596.51c-5.72-2.87-11.69-6.75-17.61-11.45c-1.7-0.03-3.36-0.1-5.01-0.19
			c7.19,6.06,14.55,11.02,21.56,14.5C234.52,598.46,234.87,597.5,235.21,596.51z"/>
		<path class="st18" d="M220.78,499.69c-11.49,0-21.05,18.03-23.78,44.87c-0.26,2.59,0.59,5.19,2.34,7.13
			c1.75,1.94,4.26,3.05,6.88,3.05h0.38c-0.07-0.23-0.11-0.46-0.11-0.71v-1.81c0-0.18,0.02-0.35,0.05-0.52h-0.33
			c-1.76,0-3.44-0.75-4.62-2.06c-1.19-1.32-1.75-3.02-1.57-4.79c2.48-24.42,11.22-42.15,20.76-42.15
			c11.64,0,21.47,25.84,21.47,56.44c0,30.59-9.83,56.44-21.47,56.44c-8,0-15.43-12.46-19.08-30.87c-1.09-0.17-2.16-0.35-3.21-0.55
			c3.89,20.98,12.37,34.45,22.3,34.45c13.74,0,24.51-26.12,24.51-59.47S234.52,499.69,220.78,499.69z"/>
		<path class="st18" d="M233.32,551.45c-0.2-0.2-0.48-0.32-0.78-0.32h-1.78h-0.86v-1.88c0-1.76-1.43-3.19-3.19-3.19h-11.83
			c-1.76,0-3.19,1.43-3.19,3.19v1.88h-0.86h-1.78c-0.3,0-0.58,0.12-0.78,0.32c-0.2,0.2-0.32,0.48-0.32,0.78v0.9v0.9
			c0,0.31,0.12,0.58,0.32,0.78c0.2,0.2,0.48,0.32,0.78,0.32h1.78h0.86v2.01h-0.86h-1.78c-0.3,0-0.58,0.12-0.78,0.32
			c-0.2,0.2-0.32,0.48-0.32,0.78v0.9v0.9c0,0.3,0.12,0.58,0.32,0.78c0.2,0.2,0.48,0.32,0.78,0.32h1.78h0.86v2.01h-0.86h-1.78
			c-0.3,0-0.58,0.13-0.78,0.32c-0.2,0.2-0.32,0.48-0.32,0.78v0.9v0.9c0,0.3,0.12,0.58,0.32,0.78c0.2,0.2,0.48,0.32,0.78,0.32h1.78
			h0.86v1.88c0,1.76,1.43,3.19,3.19,3.19h11.83c1.76,0,3.19-1.43,3.19-3.19v-1.88h0.86h1.78c0.3,0,0.58-0.12,0.78-0.32
			c0.2-0.2,0.32-0.48,0.32-0.78v-0.9v-0.9c0-0.31-0.12-0.58-0.32-0.78c-0.2-0.2-0.48-0.32-0.78-0.32h-1.78h-0.86v-2.01h0.86h1.78
			c0.3,0,0.58-0.12,0.78-0.32c0.2-0.2,0.32-0.48,0.32-0.78v-0.9v-0.9c0-0.31-0.12-0.58-0.32-0.78c-0.2-0.2-0.48-0.32-0.78-0.32
			h-1.78h-0.86v-2.01h0.86h1.78c0.3,0,0.58-0.13,0.78-0.32c0.2-0.2,0.32-0.48,0.32-0.78v-0.9v-0.9
			C233.64,551.93,233.52,551.65,233.32,551.45z"/>
	</g>
</g>
<g>
	<g id="CIRCLE_7_">
		<path class="st17" d="M314.94,1266.55c-3.21,0-5.81-2.6-5.81-5.81s2.6-5.81,5.81-5.81c3.21,0,5.81,2.6,5.81,5.81
			S318.15,1266.55,314.94,1266.55L314.94,1266.55z"/>
	</g>
	<g id="CIRCLE_6_">
		<path class="st17" d="M461.69,1413.3c-3.21,0-5.81-2.6-5.81-5.81c0-3.21,2.6-5.81,5.81-5.81c3.21,0,5.81,2.6,5.81,5.81
			C467.5,1410.7,464.9,1413.3,461.69,1413.3L461.69,1413.3z"/>
	</g>
	<g id="ARC_145_">
		<path class="st17" d="M360.41,1452.52c5.35-1.97,8.91-7.07,8.91-12.77"/>
	</g>
	<g id="ARC_144_">
		<path class="st17" d="M407.3,1439.75c0,5.7,3.56,10.8,8.91,12.77"/>
	</g>
	<g id="ARC_143_">
		<path class="st17" d="M419.18,1454.96c66.74-17.05,107.02-84.97,89.97-151.71c-17.05-66.74-84.97-107.02-151.71-89.97
			c-66.74,17.05-107.02,84.97-89.97,151.71c11.29,44.18,45.79,78.69,89.97,89.97"/>
	</g>
	<g id="ARC_142_">
		<path class="st17" d="M417.45,1453.92c-0.16-0.64-0.62-1.17-1.24-1.4"/>
	</g>
	<g id="ARC_141_">
		<path class="st17" d="M417.45,1453.92c0.18,0.76,0.95,1.23,1.71,1.05c0.01,0,0.01,0,0.02,0"/>
	</g>
	<g id="ARC_140_">
		<path class="st17" d="M360.41,1452.52c-0.62,0.23-1.09,0.75-1.24,1.4"/>
	</g>
	<g id="ARC_69_">
		<path class="st17" d="M357.44,1454.96c0.76,0.19,1.53-0.26,1.72-1.02c0-0.01,0-0.01,0-0.02"/>
	</g>
	<g id="LINE_7_">
		<line class="st17" x1="407.3" y1="1439.75" x2="407.3" y2="1425.25"/>
	</g>
	<g id="ARC_68_">
		<path class="st17" d="M416.63,1411.93c-5.6,2.04-9.33,7.36-9.33,13.32"/>
	</g>
	<g id="LINE_6_">
		<line class="st17" x1="369.32" y1="1439.75" x2="369.32" y2="1425.25"/>
	</g>
	<g id="ARC_67_">
		<path class="st17" d="M369.32,1425.25c0-5.96-3.73-11.28-9.33-13.32"/>
	</g>
	<g id="ARC_66_">
		<path class="st17" d="M499,1337.16c0.57-20.61-4.63-40.96-15-58.78"/>
	</g>
	<g id="ARC_65_">
		<path class="st17" d="M484,1278.39c-3.81-6.55-12.1-8.94-18.82-5.43"/>
	</g>
	<g id="ARC_64_">
		<path class="st17" d="M277.62,1331.06c-0.57,20.61,4.63,40.96,15,58.78"/>
	</g>
	<g id="ARC_63_">
		<path class="st17" d="M292.63,1389.84c3.81,6.55,12.1,8.94,18.82,5.43"/>
	</g>
	<g id="ARC_62_">
		<path class="st17" d="M471.93,1340.55c3.56,7.15,12.24,10.06,19.38,6.5c3.93-1.96,6.76-5.6,7.69-9.89"/>
	</g>
	<g id="ARC_61_">
		<path class="st17" d="M416.63,1411.93c30.44-11.08,51.62-38.88,54.22-71.17"/>
	</g>
	<g id="ARC_60_">
		<path class="st17" d="M471.93,1340.55c-0.14-0.28-0.48-0.39-0.76-0.26c-0.18,0.09-0.3,0.26-0.31,0.46"/>
	</g>
	<g id="ARC_59_">
		<path class="st17" d="M465.18,1272.96c-4.48,2.34-8.05,6.09-10.18,10.67"/>
	</g>
	<g id="ARC_58_">
		<path class="st17" d="M454.03,1283.74c0.19,0.25,0.55,0.3,0.79,0.1c0.07-0.06,0.13-0.13,0.17-0.21"/>
	</g>
	<g id="ARC_57_">
		<path class="st17" d="M304.7,1327.67c-3.56-7.15-12.24-10.06-19.38-6.5c-3.93,1.96-6.76,5.6-7.69,9.89"/>
	</g>
	<g id="ARC_56_">
		<path class="st17" d="M454.03,1283.74c-27.82-36.3-79.8-43.17-116.1-15.35c-18.6,14.25-30.28,35.72-32.17,59.07"/>
	</g>
	<g id="ARC_55_">
		<path class="st17" d="M304.7,1327.67c0.14,0.28,0.48,0.39,0.76,0.26c0.18-0.09,0.3-0.26,0.31-0.46"/>
	</g>
	<g id="ARC_54_">
		<path class="st17" d="M322.59,1384.49c9.6,12.52,22.58,22.04,37.4,27.44"/>
	</g>
	<g id="ARC_53_">
		<path class="st17" d="M311.44,1395.27c4.48-2.34,8.05-6.09,10.18-10.67"/>
	</g>
	<g id="ARC_52_">
		<path class="st17" d="M322.59,1384.49c-0.19-0.25-0.55-0.3-0.79-0.11c-0.07,0.06-0.13,0.13-0.17,0.21"/>
	</g>
</g>
<g>
	<g>
		<g id="ARC_51_">
			<path class="st17" d="M322.25,1383.03c3.87-10.14,0.11-21.6-9.01-27.48"/>
		</g>
		<g id="ARC_50_">
			<path class="st17" d="M306.89,1345.63c0.58,4.07,2.9,7.69,6.35,9.91"/>
		</g>
		<g id="ARC_49_">
			<path class="st17" d="M469.73,1322.44c-0.58-4.07-2.9-7.69-6.35-9.91"/>
		</g>
		<g id="ARC_48_">
			<path class="st17" d="M454.37,1285.05c-3.87,10.14-0.11,21.6,9.01,27.48"/>
		</g>
		<g id="ARC_47_">
			<path class="st17" d="M454.37,1285.05c-27.06-36.48-78.57-44.12-115.05-17.07c-24.24,17.97-36.68,47.78-32.43,77.65"/>
		</g>
		<g id="ARC_46_">
			<path class="st17" d="M416.12,1411.44c36.72-13.19,59.11-50.37,53.61-88.99"/>
		</g>
		<g id="LINE_5_">
			<line class="st17" x1="406.74" y1="1439.67" x2="406.74" y2="1424.77"/>
		</g>
		<g id="ARC_45_">
			<path class="st17" d="M416.12,1411.44c-5.63,2.02-9.38,7.36-9.38,13.34"/>
		</g>
		<g id="ARC_44_">
			<path class="st17" d="M322.25,1383.03c9.67,13.04,22.98,22.92,38.25,28.41"/>
		</g>
		<g id="LINE_4_">
			<line class="st17" x1="369.88" y1="1424.77" x2="369.88" y2="1439.67"/>
		</g>
		<g id="ARC_43_">
			<path class="st17" d="M369.88,1424.77c0-5.98-3.75-11.32-9.38-13.34"/>
		</g>
		<g id="ARC_42_">
			<path class="st17" d="M360.61,1452.97c5.57-2.05,9.28-7.36,9.28-13.3"/>
		</g>
		<g id="ARC_41_">
			<path class="st17" d="M360.61,1452.97c-0.73,0.27-1.11,1.09-0.84,1.82c0.17,0.45,0.55,0.79,1.02,0.89"/>
		</g>
		<g id="ARC_40_">
			<path class="st17" d="M406.74,1439.67c0,5.94,3.7,11.25,9.28,13.3"/>
		</g>
		<g id="ARC_39_">
			<path class="st17" d="M360.78,1455.69c18.12,4.1,36.93,4.1,55.05,0"/>
		</g>
		<g id="ARC_38_">
			<path class="st17" d="M415.84,1455.69c0.76-0.17,1.24-0.93,1.07-1.7c-0.11-0.47-0.44-0.85-0.89-1.02"/>
		</g>
	</g>
	<g>
		<path class="st18" d="M431.08,1353.23c-0.92,0.36-1.88,0.71-2.85,1.05c3.47,8.97,3.58,16.14-0.01,19.73
			c-3.56,3.56-10.72,3.53-19.82-0.01c-0.34,0.98-0.69,1.93-1.05,2.85c4.92,1.91,9.32,2.87,13.08,2.87c4.18,0,7.57-1.19,9.94-3.56
			C434.86,1371.65,435.01,1363.44,431.08,1353.23z"/>
		<g>
			<path class="st18" d="M402.6,1339.22v1.81c0,0.21-0.04,0.42-0.08,0.61l5.62,0c0.06-1.01,0.1-2.02,0.13-3.03l-5.76,0
				C402.57,1338.8,402.6,1339.01,402.6,1339.22z"/>
			<path class="st18" d="M408.34,1332.54c-0.17,0.02-0.35,0.04-0.53,0.04h-5.29c0.05,0.2,0.08,0.4,0.08,0.62v1.81
				c0,0.21-0.03,0.41-0.08,0.61h5.29c0.18,0,0.35-0.02,0.53-0.04c0.01-0.49,0.01-0.98,0.01-1.48
				C408.35,1333.58,408.34,1333.06,408.34,1332.54z"/>
		</g>
		<path class="st18" d="M413.82,1325.98c0.11,1.75,0.19,3.52,0.24,5.29C414.73,1329.51,414.64,1327.62,413.82,1325.98z"/>
		<path class="st18" d="M402.02,1313.27c-9.05-8.47-18.32-15.04-26.78-19.28c-0.39,0.93-0.76,1.9-1.13,2.9
			c8.47,4.31,17.88,11.03,26.83,19.54C401.06,1315.3,401.43,1314.22,402.02,1313.27z"/>
		<path class="st18" d="M406.79,1322.33c0.39,0.42,0.78,0.84,1.16,1.26c-0.12-1.65-0.28-3.29-0.46-4.91
			c-0.24-0.24-0.47-0.49-0.71-0.73V1322.33z"/>
		<path class="st18" d="M356.18,1291.5c3.46,0,7.62,0.98,12.19,2.79c0.35-0.99,0.72-1.94,1.09-2.87
			c-10.11-3.94-18.54-4.03-23.2,0.63c-4.67,4.67-4.57,13.15-0.59,23.3c0.92-0.38,1.88-0.74,2.86-1.1
			c-3.55-8.93-3.9-16.28-0.13-20.05C350.23,1292.36,352.9,1291.5,356.18,1291.5z"/>
		<path class="st18" d="M412.65,1311.69c0.02,0,0.04,0.01,0.07,0.01l0,0C412.7,1311.7,412.68,1311.7,412.65,1311.69z"/>
		<path class="st18" d="M412.72,1311.71c0.19,1.05,0.37,2.11,0.53,3.18h0c19.02,3.64,31.5,11.15,31.5,19.21
			c0,8.17-12.74,15.45-30.92,19.06c0.01,0,0.01,0,0.01,0c-0.13,1.09-0.27,2.17-0.43,3.23c20.46-3.84,34.37-12.27,34.37-22.29
			C447.78,1324.23,434.13,1315.59,412.72,1311.71z"/>
		<g>
			<path class="st18" d="M331.88,1334.1c0-7.08,9.9-13.96,25.84-17.97c0.25-0.06,0.5-0.09,0.75-0.09c0.68,0,1.34,0.23,1.89,0.66
				c0.77,0.6,1.21,1.51,1.2,2.48l-0.06,10.24c-0.01,1.65,0.63,3.2,1.79,4.37c1.16,1.17,2.71,1.82,4.36,1.82h6.45
				c-0.05-0.2-0.08-0.4-0.08-0.61v-1.81c0-0.21,0.04-0.42,0.08-0.61h-6.45c-0.84,0-1.62-0.33-2.21-0.92
				c-0.59-0.59-0.91-1.38-0.91-2.22l0.02-3.6c-1.13-1.92-1.68-4.18-1.45-6.49c0.12-1.22,0.28-2.43,0.43-3.63
				c-0.36-0.53-0.79-1.01-1.31-1.41c-1.5-1.18-3.42-1.58-5.25-1.12c-17.62,4.43-28.14,12.24-28.14,20.91
				c0,13.74,26.12,24.5,59.47,24.5c6.31,0,12.34-0.4,18-1.11c0.19-1.04,0.37-2.1,0.53-3.17c-5.84,0.8-12.07,1.25-18.53,1.25
				C357.72,1355.57,331.88,1345.74,331.88,1334.1z"/>
			<path class="st18" d="M401.86,1325.37c0.48,0.49,0.75,1.12,0.75,1.8v1.39c1.66-1.1,2.76-2.99,2.76-5.13v-6.21
				c0-0.91,0.4-1.77,1.09-2.36c0.16-0.14,0.33-0.25,0.52-0.35c-0.15-1.04-0.32-2.07-0.5-3.09c-0.72,0.25-1.4,0.63-2,1.14
				c-1.36,1.17-2.14,2.87-2.14,4.67v6.21c0,0.68-0.23,1.31-0.6,1.83C401.77,1325.3,401.82,1325.33,401.86,1325.37z"/>
		</g>
		<path class="st18" d="M422.89,1343.43c1.04,1.75,1.96,3.45,2.79,5.12c0.99-0.34,1.94-0.7,2.86-1.07c-0.9-1.82-1.91-3.68-3.04-5.59
			c-1.2-2.02-3.4-3.28-5.76-3.28l-5.65,0c-0.02,1.02-0.05,2.03-0.08,3.03l5.73,0C421.03,1341.64,422.23,1342.32,422.89,1343.43z"/>
		<path class="st18" d="M364.57,1346.76c-0.08,0.67-0.09,1.36-0.02,2.04c0.11,1.12,0.24,2.21,0.38,3.29
			c1.03,0.19,2.08,0.36,3.13,0.52c-0.11-0.8-0.2-1.61-0.29-2.42C366.67,1349.05,365.61,1347.91,364.57,1346.76z"/>
		<path class="st18" d="M374.02,1341.02v-1.81c0-0.21,0.04-0.42,0.08-0.61h-0.35c-2.34,0-4.6,0.9-6.3,2.49
			c0.66,0.76,1.33,1.52,2.02,2.27c1.15-1.1,2.69-1.72,4.29-1.72h0.35C374.06,1341.44,374.02,1341.23,374.02,1341.02z"/>
		<path class="st18" d="M373.13,1349.28c-9.78-9.78-17.44-20.29-22.15-29.63c-1.01,0.35-1.99,0.72-2.92,1.09
			c4.79,9.66,12.65,20.41,22.92,30.68c0.62,0.62,1.24,1.23,1.86,1.83c1.62,0.19,3.27,0.35,4.94,0.48
			C376.22,1352.3,374.66,1350.82,373.13,1349.28z"/>
		<path class="st18" d="M402.74,1371.45c-5.72-2.87-11.69-6.75-17.61-11.45c-1.7-0.03-3.36-0.1-5.01-0.19
			c7.19,6.06,14.55,11.02,21.56,14.5C402.04,1373.4,402.4,1372.44,402.74,1371.45z"/>
		<path class="st18" d="M388.31,1274.63c-11.49,0-21.05,18.03-23.78,44.87c-0.26,2.59,0.59,5.19,2.34,7.13
			c1.75,1.94,4.26,3.05,6.88,3.05h0.38c-0.07-0.23-0.11-0.46-0.11-0.71v-1.81c0-0.18,0.02-0.35,0.05-0.52h-0.33
			c-1.76,0-3.44-0.75-4.62-2.06c-1.19-1.32-1.75-3.02-1.57-4.79c2.48-24.42,11.22-42.15,20.76-42.15
			c11.64,0,21.47,25.84,21.47,56.44c0,30.59-9.83,56.44-21.47,56.44c-8,0-15.43-12.46-19.08-30.87c-1.09-0.17-2.16-0.35-3.21-0.55
			c3.89,20.98,12.37,34.45,22.3,34.45c13.74,0,24.51-26.12,24.51-59.47C412.82,1300.75,402.05,1274.63,388.31,1274.63z"/>
		<path class="st18" d="M400.85,1326.39c-0.2-0.2-0.48-0.32-0.78-0.32h-1.78h-0.86v-1.88c0-1.76-1.43-3.19-3.19-3.19H382.4
			c-1.76,0-3.19,1.43-3.19,3.19v1.88h-0.86h-1.78c-0.3,0-0.58,0.12-0.78,0.32c-0.2,0.2-0.32,0.48-0.32,0.78v0.9v0.9
			c0,0.31,0.12,0.58,0.32,0.78c0.2,0.2,0.48,0.32,0.78,0.32h1.78h0.86v2.01h-0.86h-1.78c-0.3,0-0.58,0.12-0.78,0.32
			c-0.2,0.2-0.32,0.48-0.32,0.78v0.9v0.9c0,0.3,0.12,0.58,0.32,0.78c0.2,0.2,0.48,0.32,0.78,0.32h1.78h0.86v2.01h-0.86h-1.78
			c-0.3,0-0.58,0.13-0.78,0.32c-0.2,0.2-0.32,0.48-0.32,0.78v0.9v0.9c0,0.3,0.12,0.58,0.32,0.78c0.2,0.2,0.48,0.32,0.78,0.32h1.78
			h0.86v1.88c0,1.76,1.43,3.19,3.19,3.19h11.83c1.76,0,3.19-1.43,3.19-3.19v-1.88h0.86h1.78c0.3,0,0.58-0.12,0.78-0.32
			c0.2-0.2,0.32-0.48,0.32-0.78v-0.9v-0.9c0-0.31-0.12-0.58-0.32-0.78c-0.2-0.2-0.48-0.32-0.78-0.32h-1.78h-0.86v-2.01h0.86h1.78
			c0.3,0,0.58-0.12,0.78-0.32c0.2-0.2,0.32-0.48,0.32-0.78v-0.9v-0.9c0-0.31-0.12-0.58-0.32-0.78c-0.2-0.2-0.48-0.32-0.78-0.32
			h-1.78h-0.86v-2.01h0.86h1.78c0.3,0,0.58-0.13,0.78-0.32c0.2-0.2,0.32-0.48,0.32-0.78v-0.9v-0.9
			C401.17,1326.87,401.05,1326.59,400.85,1326.39z"/>
	</g>
</g>
</svg>
