<?xml version="1.0" encoding="utf-8"?>
<!-- Generator: Adobe Illustrator 23.0.1, SVG Export Plug-In . SVG Version: 6.00 Build 0)  -->
<svg version="1.1" id="_x30_" xmlns="http://www.w3.org/2000/svg" xmlns:xlink="http://www.w3.org/1999/xlink" x="0px" y="0px"
	 viewBox="0 0 776.62 1546.47" style="enable-background:new 0 0 776.62 1546.47;" xml:space="preserve">
<style type="text/css">
	.st0{fill:#1D1D1B;}
	.st1{fill:none;stroke:#1D1D1B;stroke-width:0.6565;stroke-miterlimit:10;}
	.st2{fill:none;stroke:#1D1D1B;stroke-width:0.4876;stroke-linecap:round;stroke-miterlimit:10;}
	.st3{fill:none;stroke:#1D1D1B;stroke-width:0.4876;stroke-miterlimit:10;}
	.st4{fill:none;stroke:#1D1D1B;stroke-width:0.4876;stroke-linecap:round;stroke-linejoin:bevel;stroke-miterlimit:10;}
	.st5{fill:#FFFFFF;stroke:#1D1D1B;stroke-width:0.6565;stroke-miterlimit:10;}
	.st6{fill:none;stroke:#FF0000;stroke-width:2.835000e-03;stroke-linecap:round;stroke-linejoin:round;stroke-miterlimit:10;}
	.st7{fill:#FFFFFF;}
	.st8{font-family:'Roboto-Medium';}
	.st9{font-size:23.094px;}
	.st10{font-size:23.09px;}
	.st11{font-family:'Roboto-Black';}
	.st12{font-size:21.8443px;}
	.st13{font-family:'Roboto-BlackItalic';}
	.st14{font-size:23.1051px;}
	.st15{fill:none;stroke:#0000FF;stroke-width:2.835000e-03;stroke-miterlimit:10;}
</style>
<g>
	<g id="CIRCLE_43_">
		<path class="st6" d="M665.84,1344.56c-3.29,0-5.95-2.67-5.95-5.95s2.67-5.95,5.95-5.95c3.29,0,5.95,2.67,5.95,5.95
			S669.13,1344.56,665.84,1344.56L665.84,1344.56z"/>
	</g>
	<g id="ARC_139_">
		<path class="st6" d="M651.67,1338.6c0-30.2-16.53-57.99-43.07-72.4"/>
	</g>
	<g id="ARC_138_">
		<path class="st6" d="M651.67,1338.6c0,7.83,6.35,14.17,14.17,14.17c7.83,0,14.17-6.35,14.17-14.17"/>
	</g>
	<g id="ARC_137_">
		<path class="st6" d="M680.01,1338.6c0-40.6-22.22-77.94-57.89-97.31"/>
	</g>
	<g id="LINE_83_">
		<line class="st6" x1="608.59" y1="1266.2" x2="622.12" y2="1241.29"/>
	</g>
</g>
<g>
	<g id="CIRCLE_42_">
		<path class="st6" d="M323.77,1344.56c-3.29,0-5.95-2.67-5.95-5.95s2.67-5.95,5.95-5.95s5.95,2.67,5.95,5.95
			S327.06,1344.56,323.77,1344.56L323.77,1344.56z"/>
	</g>
	<g id="ARC_136_">
		<path class="st6" d="M300.15,1237.43c3.81,2.75,9.12,1.88,11.87-1.93c0.78-1.08,1.29-2.33,1.5-3.64"/>
	</g>
	<g id="ARC_135_">
		<path class="st6" d="M300.15,1237.43c-43.56-31.4-102.32-31.4-145.88,0"/>
	</g>
	<g id="ARC_134_">
		<path class="st6" d="M140.9,1231.86c0.73,4.64,5.09,7.8,9.73,7.07c1.32-0.21,2.56-0.72,3.64-1.5"/>
	</g>
	<g id="ARC_133_">
		<path class="st6" d="M140.9,1231.86c-1.54-9.74-10.69-16.39-20.43-14.85c-9.74,1.54-16.39,10.69-14.85,20.43
			c1.21,7.64,7.2,13.64,14.85,14.85"/>
	</g>
	<g id="ARC_132_">
		<path class="st6" d="M126.04,1265.66c2.75-3.81,1.88-9.12-1.93-11.87c-1.08-0.78-2.33-1.29-3.64-1.5"/>
	</g>
	<g id="ARC_131_">
		<path class="st6" d="M126.04,1265.66c-31.4,43.56-31.4,102.32,0,145.88"/>
	</g>
	<g id="ARC_130_">
		<path class="st6" d="M120.47,1424.91c4.64-0.73,7.8-5.09,7.07-9.73c-0.21-1.32-0.72-2.56-1.5-3.64"/>
	</g>
	<g id="ARC_129_">
		<path class="st6" d="M120.47,1424.91c-9.74,1.54-16.39,10.69-14.85,20.43c1.54,9.74,10.69,16.39,20.43,14.85
			c7.64-1.21,13.64-7.2,14.85-14.85"/>
	</g>
	<g id="ARC_128_">
		<path class="st6" d="M154.28,1439.78c-3.81-2.75-9.12-1.88-11.87,1.93c-0.78,1.08-1.29,2.33-1.5,3.64"/>
	</g>
	<g id="ARC_127_">
		<path class="st6" d="M154.28,1439.78c43.56,31.4,102.32,31.4,145.88,0"/>
	</g>
	<g id="ARC_126_">
		<path class="st6" d="M313.53,1445.35c-0.73-4.64-5.09-7.8-9.73-7.07c-1.32,0.21-2.56,0.72-3.64,1.5"/>
	</g>
	<g id="ARC_125_">
		<path class="st6" d="M313.53,1445.35c1.54,9.74,10.69,16.39,20.43,14.85c9.74-1.54,16.39-10.69,14.85-20.43
			c-1.21-7.64-7.2-13.64-14.85-14.85"/>
	</g>
	<g id="ARC_124_">
		<path class="st6" d="M328.39,1411.54c-2.75,3.81-1.88,9.12,1.93,11.87c1.08,0.78,2.33,1.29,3.64,1.5"/>
	</g>
	<g id="ARC_123_">
		<path class="st6" d="M328.39,1411.54c31.4-43.56,31.4-102.32,0-145.88"/>
	</g>
	<g id="ARC_122_">
		<path class="st6" d="M333.96,1252.29c-4.64,0.73-7.8,5.09-7.07,9.73c0.21,1.32,0.72,2.56,1.5,3.64"/>
	</g>
	<g id="ARC_121_">
		<path class="st6" d="M333.96,1252.29c9.74-1.54,16.39-10.69,14.85-20.43c-1.54-9.74-10.69-16.39-20.43-14.85
			c-7.64,1.21-13.64,7.2-14.85,14.85"/>
	</g>
	<g id="CIRCLE_41_">
		<path class="st6" d="M227.22,1278.49c-2.58,0-4.68-2.09-4.68-4.68c0-2.58,2.09-4.68,4.68-4.68c2.58,0,4.68,2.09,4.68,4.68
			C231.89,1276.4,229.8,1278.49,227.22,1278.49L227.22,1278.49z"/>
	</g>
	<g id="CIRCLE_40_">
		<path class="st6" d="M123.27,1239.19c-2.5,0-4.54-2.03-4.54-4.54c0-2.5,2.03-4.54,4.54-4.54c2.5,0,4.54,2.03,4.54,4.54
			C127.8,1237.16,125.77,1239.19,123.27,1239.19L123.27,1239.19z"/>
	</g>
	<g id="LINE_82_">
		<line class="st6" x1="274.55" y1="1301.75" x2="274.55" y2="1375.45"/>
	</g>
	<g id="LINE_81_">
		<line class="st6" x1="264.07" y1="1375.45" x2="274.55" y2="1375.45"/>
	</g>
	<g id="LINE_80_">
		<line class="st6" x1="264.07" y1="1375.45" x2="264.07" y2="1385.94"/>
	</g>
	<g id="LINE_79_">
		<line class="st6" x1="188.38" y1="1385.94" x2="264.07" y2="1385.94"/>
	</g>
	<g id="LINE_78_">
		<line class="st6" x1="188.38" y1="1385.94" x2="188.38" y2="1291.26"/>
	</g>
	<g id="LINE_77_">
		<line class="st6" x1="264.07" y1="1291.26" x2="188.38" y2="1291.26"/>
	</g>
	<g id="LINE_76_">
		<line class="st6" x1="264.07" y1="1291.26" x2="264.07" y2="1301.75"/>
	</g>
	<g id="LINE_75_">
		<line class="st6" x1="264.07" y1="1301.75" x2="274.55" y2="1301.75"/>
	</g>
	<g id="CIRCLE_39_">
		<path class="st6" d="M331.16,1239.19c-2.5,0-4.54-2.03-4.54-4.54c0-2.5,2.03-4.54,4.54-4.54c2.5,0,4.54,2.03,4.54,4.54
			C335.7,1237.16,333.67,1239.19,331.16,1239.19L331.16,1239.19z"/>
	</g>
	<g id="CIRCLE_38_">
		<path class="st6" d="M331.16,1447.09c-2.5,0-4.54-2.03-4.54-4.54c0-2.5,2.03-4.54,4.54-4.54c2.5,0,4.54,2.03,4.54,4.54
			C335.7,1445.06,333.67,1447.09,331.16,1447.09L331.16,1447.09z"/>
	</g>
	<g id="CIRCLE_37_">
		<path class="st6" d="M123.27,1447.09c-2.5,0-4.54-2.03-4.54-4.54c0-2.5,2.03-4.54,4.54-4.54c2.5,0,4.54,2.03,4.54,4.54
			C127.8,1445.06,125.77,1447.09,123.27,1447.09L123.27,1447.09z"/>
	</g>
	<g id="CIRCLE_36_">
		<path class="st6" d="M130.66,1344.56c-3.29,0-5.95-2.67-5.95-5.95s2.67-5.95,5.95-5.95s5.95,2.67,5.95,5.95
			S133.95,1344.56,130.66,1344.56L130.66,1344.56z"/>
	</g>
</g>
<g>
	<g id="LINE_74_">
		<line class="st6" x1="536.64" y1="1391.51" x2="536.64" y2="1385.84"/>
	</g>
	<g id="LINE_73_">
		<line class="st6" x1="536.64" y1="1391.51" x2="547.97" y2="1391.51"/>
	</g>
	<g id="LINE_72_">
		<line class="st6" x1="521.9" y1="1385.84" x2="536.64" y2="1385.84"/>
	</g>
	<g id="LINE_71_">
		<line class="st6" x1="521.9" y1="1385.84" x2="521.9" y2="1291.16"/>
	</g>
	<g id="LINE_70_">
		<line class="st6" x1="616.57" y1="1291.16" x2="521.9" y2="1291.16"/>
	</g>
	<g id="LINE_69_">
		<line class="st6" x1="616.57" y1="1291.16" x2="616.57" y2="1385.84"/>
	</g>
	<g id="LINE_68_">
		<line class="st6" x1="601.83" y1="1385.84" x2="616.57" y2="1385.84"/>
	</g>
	<g id="ARC_120_">
		<path class="st6" d="M601.83,1385.84c-7.83,0-14.17,6.35-14.17,14.17"/>
	</g>
	<g id="LINE_67_">
		<line class="st6" x1="587.66" y1="1400.01" x2="587.66" y2="1418.65"/>
	</g>
	<g id="ARC_119_">
		<path class="st6" d="M587.66,1418.65c44.27-10.18,71.9-54.31,61.73-98.58c-10.18-44.27-54.31-71.9-98.58-61.73
			s-71.9,54.31-61.73,98.58c7.06,30.7,31.03,54.67,61.73,61.73"/>
	</g>
	<g id="LINE_66_">
		<line class="st6" x1="550.81" y1="1400.01" x2="550.81" y2="1418.65"/>
	</g>
	<g id="ARC_118_">
		<path class="st6" d="M550.81,1400.01c0-3.07-0.99-6.05-2.83-8.5"/>
	</g>
	<g id="CIRCLE_35_">
		<path class="st6" d="M569.23,1279.52c-3.21,0-5.81-2.6-5.81-5.81c0-3.21,2.6-5.81,5.81-5.81c3.21,0,5.81,2.6,5.81,5.81
			C575.04,1276.92,572.44,1279.52,569.23,1279.52L569.23,1279.52z"/>
	</g>
</g>
<g>
	<g>
		<g>
			
				<ellipse transform="matrix(0.7071 -0.7071 0.7071 0.7071 -43.9191 427.7538)" class="st0" cx="494.39" cy="266.89" rx="20.95" ry="20.95"/>
			<text transform="matrix(1 0 0 1 480.492 274.0602)" class="st7 st8 st9">A1</text>
		</g>
		<text transform="matrix(1 0 0 1 532.6828 274.0602)" class="st8 st10">Base</text>
	</g>
	<g>
		<g>
			
				<ellipse transform="matrix(0.7071 -0.7071 0.7071 0.7071 -219.4172 500.4475)" class="st0" cx="494.39" cy="515.08" rx="20.95" ry="20.95"/>
			<text transform="matrix(1 0 0 1 480.492 522.252)" class="st7 st8 st9">A2</text>
		</g>
		<text transform="matrix(1 0 0 1 532.6828 522.2515)" class="st8 st10">Movuino case</text>
	</g>
	<g>
		<g>
			
				<ellipse transform="matrix(0.7071 -0.7071 0.7071 0.7071 -541.1193 633.7009)" class="st0" cx="494.39" cy="970.04" rx="20.95" ry="20.95"/>
			<text transform="matrix(1 0 0 1 480.492 977.2075)" class="st7 st8 st9">A4</text>
		</g>
		<text transform="matrix(1 0 0 1 532.6828 976.8022)" class="st8 st10">Spring support</text>
	</g>
	<g>
		<g>
			
				<ellipse transform="matrix(0.7071 -0.7071 0.7071 0.7071 -393.5134 572.5605)" class="st0" cx="494.39" cy="761.29" rx="20.95" ry="20.95"/>
			<text transform="matrix(1 0 0 1 480.492 768.4612)" class="st7 st8 st9">A3</text>
		</g>
		<text transform="matrix(1 0 0 1 532.6828 768.4615)" class="st8 st10">Spring crown</text>
	</g>
	<g>
		<g id="CIRCLE_34_">
			<path class="st6" d="M267.57,948.5c0,3.29-2.67,5.95-5.95,5.95c-3.29,0-5.95-2.67-5.95-5.95c0-3.29,2.67-5.95,5.95-5.95
				C264.91,942.55,267.57,945.21,267.57,948.5L267.57,948.5z"/>
		</g>
		<g id="ARC_117_">
			<path class="st6" d="M261.62,962.68c-30.2,0-57.99,16.53-72.4,43.07"/>
		</g>
		<g id="ARC_116_">
			<path class="st6" d="M261.62,962.68c7.83,0,14.17-6.35,14.17-14.17c0-7.83-6.35-14.17-14.17-14.17"/>
		</g>
		<g id="ARC_115_">
			<path class="st6" d="M261.62,934.33c-40.6,0-77.94,22.22-97.31,57.89"/>
		</g>
		<g id="LINE_65_">
			<line class="st6" x1="189.22" y1="1005.75" x2="164.31" y2="992.22"/>
		</g>
	</g>
	<g>
		<g id="CIRCLE_33_">
			<path class="st6" d="M311.43,272.84c-3.29,0-5.95-2.67-5.95-5.95s2.67-5.95,5.95-5.95c3.29,0,5.95,2.67,5.95,5.95
				S314.72,272.84,311.43,272.84L311.43,272.84z"/>
		</g>
		<g id="ARC_114_">
			<path class="st6" d="M287.81,165.72c3.81,2.75,9.12,1.88,11.87-1.93c0.78-1.08,1.29-2.33,1.5-3.64"/>
		</g>
		<g id="ARC_113_">
			<path class="st6" d="M287.81,165.72c-43.56-31.4-102.32-31.4-145.88,0"/>
		</g>
		<g id="ARC_112_">
			<path class="st6" d="M128.56,160.15c0.73,4.64,5.09,7.8,9.73,7.07c1.32-0.21,2.56-0.72,3.64-1.5"/>
		</g>
		<g id="ARC_111_">
			<path class="st6" d="M128.56,160.15c-1.54-9.74-10.69-16.39-20.43-14.85c-9.74,1.54-16.39,10.69-14.85,20.43
				c1.21,7.64,7.2,13.64,14.85,14.85"/>
		</g>
		<g id="ARC_110_">
			<path class="st6" d="M113.7,193.95c2.75-3.81,1.88-9.12-1.93-11.87c-1.08-0.78-2.33-1.29-3.64-1.5"/>
		</g>
		<g id="ARC_109_">
			<path class="st6" d="M113.7,193.95c-31.4,43.56-31.4,102.32,0,145.88"/>
		</g>
		<g id="ARC_108_">
			<path class="st6" d="M108.13,353.2c4.64-0.73,7.8-5.09,7.07-9.73c-0.21-1.32-0.72-2.56-1.5-3.64"/>
		</g>
		<g id="ARC_107_">
			<path class="st6" d="M108.13,353.2c-9.74,1.54-16.39,10.69-14.85,20.43c1.54,9.74,10.69,16.39,20.43,14.85
				c7.64-1.21,13.64-7.2,14.85-14.85"/>
		</g>
		<g id="ARC_106_">
			<path class="st6" d="M141.93,368.07c-3.81-2.75-9.12-1.88-11.87,1.93c-0.78,1.08-1.29,2.33-1.5,3.64"/>
		</g>
		<g id="ARC_105_">
			<path class="st6" d="M141.93,368.07c43.56,31.4,102.32,31.4,145.88,0"/>
		</g>
		<g id="ARC_104_">
			<path class="st6" d="M301.18,373.63c-0.73-4.64-5.09-7.8-9.73-7.07c-1.32,0.21-2.56,0.72-3.64,1.5"/>
		</g>
		<g id="ARC_103_">
			<path class="st6" d="M301.18,373.63c1.54,9.74,10.69,16.39,20.43,14.85c9.74-1.54,16.39-10.69,14.85-20.43
				c-1.21-7.64-7.2-13.64-14.85-14.85"/>
		</g>
		<g id="ARC_102_">
			<path class="st6" d="M316.05,339.83c-2.75,3.81-1.88,9.12,1.93,11.87c1.08,0.78,2.33,1.29,3.64,1.5"/>
		</g>
		<g id="ARC_101_">
			<path class="st6" d="M316.05,339.83c31.4-43.56,31.4-102.32,0-145.88"/>
		</g>
		<g id="ARC_100_">
			<path class="st6" d="M321.61,180.58c-4.64,0.73-7.8,5.09-7.07,9.73c0.21,1.32,0.72,2.56,1.5,3.64"/>
		</g>
		<g id="ARC_99_">
			<path class="st6" d="M321.61,180.58c9.74-1.54,16.39-10.69,14.85-20.43c-1.54-9.74-10.69-16.39-20.43-14.85
				c-7.64,1.21-13.64,7.2-14.85,14.85"/>
		</g>
		<g id="CIRCLE_32_">
			<path class="st6" d="M214.87,206.78c-2.58,0-4.68-2.09-4.68-4.68c0-2.58,2.09-4.68,4.68-4.68s4.68,2.09,4.68,4.68
				C219.55,204.69,217.45,206.78,214.87,206.78L214.87,206.78z"/>
		</g>
		<g id="CIRCLE_31_">
			<path class="st6" d="M110.92,167.48c-2.5,0-4.54-2.03-4.54-4.54c0-2.5,2.03-4.54,4.54-4.54c2.5,0,4.54,2.03,4.54,4.54
				C115.46,165.45,113.43,167.48,110.92,167.48L110.92,167.48z"/>
		</g>
		<g id="LINE_64_">
			<line class="st6" x1="262.21" y1="230.04" x2="262.21" y2="303.74"/>
		</g>
		<g id="LINE_63_">
			<line class="st6" x1="251.72" y1="303.74" x2="262.21" y2="303.74"/>
		</g>
		<g id="LINE_62_">
			<line class="st6" x1="251.72" y1="303.74" x2="251.72" y2="314.23"/>
		</g>
		<g id="LINE_61_">
			<line class="st6" x1="176.04" y1="314.23" x2="251.72" y2="314.23"/>
		</g>
		<g id="LINE_60_">
			<line class="st6" x1="176.04" y1="314.23" x2="176.04" y2="219.55"/>
		</g>
		<g id="LINE_59_">
			<line class="st6" x1="251.72" y1="219.55" x2="176.04" y2="219.55"/>
		</g>
		<g id="LINE_58_">
			<line class="st6" x1="251.72" y1="219.55" x2="251.72" y2="230.04"/>
		</g>
		<g id="LINE_57_">
			<line class="st6" x1="251.72" y1="230.04" x2="262.21" y2="230.04"/>
		</g>
		<g id="CIRCLE_30_">
			<path class="st6" d="M318.82,167.48c-2.5,0-4.54-2.03-4.54-4.54c0-2.5,2.03-4.54,4.54-4.54c2.5,0,4.54,2.03,4.54,4.54
				C323.36,165.45,321.33,167.48,318.82,167.48L318.82,167.48z"/>
		</g>
		<g id="CIRCLE_29_">
			<path class="st6" d="M318.82,375.38c-2.5,0-4.54-2.03-4.54-4.54c0-2.5,2.03-4.54,4.54-4.54c2.5,0,4.54,2.03,4.54,4.54
				C323.36,373.35,321.33,375.38,318.82,375.38L318.82,375.38z"/>
		</g>
		<g id="CIRCLE_28_">
			<path class="st6" d="M110.92,375.38c-2.5,0-4.54-2.03-4.54-4.54c0-2.5,2.03-4.54,4.54-4.54c2.5,0,4.54,2.03,4.54,4.54
				C115.46,373.35,113.43,375.38,110.92,375.38L110.92,375.38z"/>
		</g>
		<g id="CIRCLE_27_">
			<path class="st6" d="M118.32,272.84c-3.29,0-5.95-2.67-5.95-5.95s2.67-5.95,5.95-5.95c3.29,0,5.95,2.67,5.95,5.95
				S121.6,272.84,118.32,272.84L118.32,272.84z"/>
		</g>
	</g>
	<g>
		<g id="LINE_56_">
			<line class="st6" x1="182.27" y1="569.15" x2="182.27" y2="563.48"/>
		</g>
		<g id="LINE_55_">
			<line class="st6" x1="182.27" y1="569.15" x2="193.61" y2="569.15"/>
		</g>
		<g id="LINE_54_">
			<line class="st6" x1="167.53" y1="563.48" x2="182.27" y2="563.48"/>
		</g>
		<g id="LINE_53_">
			<line class="st6" x1="167.53" y1="563.48" x2="167.53" y2="468.8"/>
		</g>
		<g id="LINE_52_">
			<line class="st6" x1="262.21" y1="468.8" x2="167.53" y2="468.8"/>
		</g>
		<g id="LINE_51_">
			<line class="st6" x1="262.21" y1="468.8" x2="262.21" y2="563.48"/>
		</g>
		<g id="LINE_50_">
			<line class="st6" x1="247.47" y1="563.48" x2="262.21" y2="563.48"/>
		</g>
		<g id="ARC_98_">
			<path class="st6" d="M247.47,563.48c-7.83,0-14.17,6.35-14.17,14.17"/>
		</g>
		<g id="LINE_49_">
			<line class="st6" x1="233.3" y1="577.65" x2="233.3" y2="596.29"/>
		</g>
		<g id="ARC_97_">
			<path class="st6" d="M233.3,596.29c44.27-10.18,71.9-54.31,61.73-98.58c-10.18-44.27-54.31-71.9-98.58-61.73
				c-44.27,10.18-71.9,54.31-61.73,98.58c7.06,30.7,31.03,54.67,61.73,61.73"/>
		</g>
		<g id="LINE_48_">
			<line class="st6" x1="196.45" y1="577.65" x2="196.45" y2="596.29"/>
		</g>
		<g id="ARC_96_">
			<path class="st6" d="M196.45,577.65c0-3.07-0.99-6.05-2.83-8.5"/>
		</g>
		<g id="CIRCLE_26_">
			<path class="st6" d="M214.87,457.16c-3.21,0-5.81-2.6-5.81-5.81c0-3.21,2.6-5.81,5.81-5.81c3.21,0,5.81,2.6,5.81,5.81
				C220.68,454.56,218.08,457.16,214.87,457.16L214.87,457.16z"/>
		</g>
	</g>
	<g>
		<g id="ARC_95_">
			<path class="st6" d="M213.53,671.26c-13.15,0-26.14,2.88-38.05,8.44"/>
		</g>
		<g id="ARC_94_">
			<path class="st6" d="M169.97,667.87c-3.26,1.52-4.68,5.4-3.15,8.66c1.52,3.26,5.4,4.68,8.66,3.15"/>
		</g>
		<g id="ARC_93_">
			<path class="st6" d="M209.6,872.05c0.11,0.03,0.22,0.05,0.33,0.05"/>
		</g>
		<g id="ARC_92_">
			<path class="st6" d="M204.65,846.09c-6.5,4.91-7.79,14.15-2.88,20.65c1.95,2.59,4.71,4.46,7.83,5.32"/>
		</g>
		<g id="ARC_91_">
			<path class="st6" d="M132.8,779.72c7.81,34.2,36.32,59.77,71.16,63.83"/>
		</g>
		<g id="ARC_90_">
			<path class="st6" d="M286.31,721.78c-21.82-40.19-72.09-55.08-112.29-33.26c-20.91,11.35-35.93,31.15-41.22,54.35"/>
		</g>
		<g id="LINE_47_">
			<line class="st6" x1="286.31" y1="721.78" x2="310.97" y2="708.39"/>
		</g>
		<g id="ARC_89_">
			<path class="st6" d="M209.93,872.11c61.2,1.99,112.42-46.01,114.41-107.21c0.64-19.69-3.98-39.19-13.38-56.5"/>
		</g>
		<g id="CIRCLE_25_">
			<path class="st6" d="M135.48,834.67c0-2.58,2.09-4.68,4.68-4.68c2.58,0,4.68,2.09,4.68,4.68c0,2.58-2.09,4.68-4.68,4.68
				C137.58,839.34,135.48,837.25,135.48,834.67L135.48,834.67z"/>
		</g>
		<g id="CIRCLE_24_">
			<path class="st6" d="M282.23,687.92c0-2.58,2.09-4.68,4.68-4.68s4.68,2.09,4.68,4.68c0,2.58-2.09,4.68-4.68,4.68
				S282.23,690.5,282.23,687.92L282.23,687.92z"/>
		</g>
		<g id="ARC_88_">
			<path class="st6" d="M213.53,658.22c-15.05,0-29.92,3.3-43.56,9.66"/>
		</g>
		<g id="LINE_46_">
			<line class="st6" x1="132.8" y1="742.87" x2="107.9" y2="742.87"/>
		</g>
		<g id="ARC_87_">
			<path class="st6" d="M94.35,724.52c-2.31,7.48,1.88,15.41,9.36,17.72c1.35,0.42,2.76,0.63,4.18,0.63"/>
		</g>
		<g id="ARC_86_">
			<path class="st6" d="M94.35,798.07c20.31,65.82,90.14,102.71,155.96,82.4c65.82-20.31,102.71-90.14,82.4-155.96
				c-20.31-65.82-90.14-102.71-155.96-82.4c-39.4,12.16-70.24,43-82.4,82.4"/>
		</g>
		<g id="ARC_85_">
			<path class="st6" d="M107.9,779.72c-7.83,0-14.17,6.35-14.17,14.17c0,1.42,0.21,2.83,0.63,4.18"/>
		</g>
		<g id="LINE_45_">
			<line class="st6" x1="132.8" y1="779.72" x2="107.9" y2="779.72"/>
		</g>
		<g id="ARC_84_">
			<path class="st6" d="M204.65,846.09c0.62-0.47,0.75-1.36,0.28-1.99c-0.23-0.31-0.58-0.51-0.97-0.55"/>
		</g>
		<g id="ARC_83_">
			<path class="st6" d="M213.53,671.26c3.6,0,6.52-2.92,6.52-6.52s-2.92-6.52-6.52-6.52"/>
		</g>
	</g>
</g>
<g>
	<g id="ARC_82_">
		<path class="st6" d="M479.2,1338.55c0,13.15,2.88,26.14,8.44,38.05"/>
	</g>
	<g id="ARC_81_">
		<path class="st6" d="M475.82,1382.11c1.52,3.26,5.4,4.68,8.66,3.15c3.26-1.52,4.68-5.4,3.15-8.66"/>
	</g>
	<g id="ARC_80_">
		<path class="st6" d="M680,1342.48c0.03-0.11,0.05-0.22,0.05-0.33"/>
	</g>
	<g id="ARC_79_">
		<path class="st6" d="M654.03,1347.43c4.91,6.5,14.15,7.79,20.65,2.88c2.59-1.95,4.46-4.71,5.32-7.83"/>
	</g>
	<g id="ARC_78_">
		<path class="st6" d="M587.66,1419.28c34.2-7.81,59.77-36.32,63.83-71.16"/>
	</g>
	<g id="ARC_77_">
		<path class="st6" d="M529.72,1265.78c-40.19,21.82-55.08,72.09-33.26,112.29c11.35,20.91,31.15,35.93,54.35,41.22"/>
	</g>
	<g id="LINE_44_">
		<line class="st6" x1="529.72" y1="1265.78" x2="516.33" y2="1241.12"/>
	</g>
	<g id="ARC_76_">
		<path class="st6" d="M680.05,1342.15c1.99-61.2-46.01-112.42-107.21-114.41c-19.69-0.64-39.19,3.98-56.5,13.38"/>
	</g>
	<g id="CIRCLE_23_">
		<path class="st6" d="M642.61,1416.6c-2.58,0-4.68-2.09-4.68-4.68c0-2.58,2.09-4.68,4.68-4.68c2.58,0,4.68,2.09,4.68,4.68
			C647.28,1414.51,645.19,1416.6,642.61,1416.6L642.61,1416.6z"/>
	</g>
	<g id="CIRCLE_22_">
		<path class="st6" d="M495.86,1269.85c-2.58,0-4.68-2.09-4.68-4.68s2.09-4.68,4.68-4.68s4.68,2.09,4.68,4.68
			S498.44,1269.85,495.86,1269.85L495.86,1269.85z"/>
	</g>
	<g id="ARC_75_">
		<path class="st6" d="M466.16,1338.55c0,15.05,3.3,29.92,9.66,43.56"/>
	</g>
	<g id="LINE_43_">
		<line class="st6" x1="550.81" y1="1419.28" x2="550.81" y2="1444.19"/>
	</g>
	<g id="ARC_74_">
		<path class="st6" d="M532.46,1457.73c7.48,2.31,15.41-1.88,17.72-9.36c0.42-1.35,0.63-2.76,0.63-4.18"/>
	</g>
	<g id="ARC_73_">
		<path class="st6" d="M606.01,1457.73c65.82-20.31,102.71-90.14,82.4-155.96c-20.31-65.82-90.14-102.71-155.96-82.4
			c-65.82,20.31-102.71,90.14-82.4,155.96c12.16,39.4,43,70.24,82.4,82.4"/>
	</g>
	<g id="ARC_72_">
		<path class="st6" d="M587.66,1444.19c0,7.83,6.35,14.17,14.17,14.17c1.42,0,2.83-0.21,4.18-0.63"/>
	</g>
	<g id="LINE_42_">
		<line class="st6" x1="587.66" y1="1419.28" x2="587.66" y2="1444.19"/>
	</g>
	<g id="ARC_71_">
		<path class="st6" d="M654.03,1347.43c-0.47-0.62-1.36-0.75-1.99-0.28c-0.31,0.23-0.51,0.58-0.55,0.97"/>
	</g>
	<g id="ARC_70_">
		<path class="st6" d="M479.2,1338.55c0-3.6-2.92-6.52-6.52-6.52c-3.6,0-6.52,2.92-6.52,6.52"/>
	</g>
</g>
<line class="st1" x1="776.62" y1="1118.97" x2="0" y2="1118.97"/>
<text transform="matrix(1 0 0 1 550.1218 63.3075)" class="st11 st12">6mm thick</text>
<line class="st2" x1="776.62" y1="45.66" x2="673.68" y2="45.66"/>
<line class="st2" x1="776.62" y1="68.11" x2="673.68" y2="68.11"/>
<line class="st3" x1="0" y1="56.89" x2="529.65" y2="56.89"/>
<g>
	<polyline class="st4" points="693.81,51.2 688.27,45.66 682.72,51.2 	"/>
	<polyline class="st4" points="693.81,62.57 688.27,68.11 682.72,62.57 	"/>
	<line class="st4" x1="688.27" y1="45.66" x2="688.27" y2="68.11"/>
</g>
<circle class="st0" cx="529.65" cy="56.89" r="2.21"/>
<g>
	<path class="st5" d="M281.16,79.68H94.73c-12.59,0-22.79-10.21-22.79-22.79l0,0c0-12.59,10.21-22.79,22.79-22.79h186.43
		c12.59,0,22.79,10.21,22.79,22.79l0,0C303.95,69.47,293.75,79.68,281.16,79.68z"/>
	<text transform="matrix(1 0 0 1 110.4148 64.4643)" class="st13 st14">To laser cut</text>
</g>
<g>
	<path class="st5" d="M281.16,1141.76H94.73c-12.59,0-22.79-10.21-22.79-22.79l0,0c0-12.59,10.21-22.79,22.79-22.79h186.43
		c12.59,0,22.79,10.21,22.79,22.79l0,0C303.95,1131.56,293.75,1141.76,281.16,1141.76z"/>
	<text transform="matrix(1 0 0 1 107.9158 1126.5485)" class="st13 st14">Print Layout</text>
</g>
</svg>
